G04 ================== begin FILE IDENTIFICATION RECORD ==================*
G04 Layout Name:  C:/Users/eliza/AppData/Roaming/SPB_Data/unnamed.brd*
G04 Film Name:    FAB*
G04 File Format:  Gerber RS274X*
G04 File Origin:  Cadence Allegro 17.2-S025*
G04 Origin Date:  Sat Dec 14 10:02:13 2024*
G04 *
G04 Layer:  MANUFACTURING/NCDRILL_LEGEND*
G04 Layer:  MANUFACTURING/NCDRILL_FIGURE*
G04 Layer:  MANUFACTURING/XSECTION_CHART*
G04 Layer:  MANUFACTURING/NCLEGEND-1-2*
G04 Layer:  DRAWING FORMAT/OUTLINE*
G04 Layer:  BOARD GEOMETRY/OUTLINE*
G04 Layer:  BOARD GEOMETRY/DESIGN_OUTLINE*
G04 Layer:  BOARD GEOMETRY/CUTOUT*
G04 *
G04 Offset:    (0.0000 0.0000)*
G04 Mirror:    No*
G04 Mode:      Positive*
G04 Rotation:  0*
G04 FullContactRelief:  No*
G04 UndefLineWidth:     0.0000*
G04 ================== end FILE IDENTIFICATION RECORD ====================*
%FSLAX25Y25*MOMM*%
%IR0*IPPOS*OFA0.00000B0.00000*MIA0B0*SFA1.00000B1.00000*%
%AMMACRO10*
1,1,0.0,.635,0.0*
20,1,0.0,.635,0.0,.625353,-.110267,0.0*
1,1,0.0,.625353,-.110267*
20,1,0.0,.625353,-.110267,.596705,-.217183,0.0*
1,1,0.0,.596705,-.217183*
20,1,0.0,.596705,-.217183,.549926,-.3175,0.0*
1,1,0.0,.549926,-.3175*
20,1,0.0,.549926,-.3175,.486438,-.40817,0.0*
1,1,0.0,.486438,-.40817*
20,1,0.0,.486438,-.40817,.40817,-.486438,0.0*
1,1,0.0,.40817,-.486438*
20,1,0.0,.40817,-.486438,.3175,-.549926,0.0*
1,1,0.0,.3175,-.549926*
20,1,0.0,.3175,-.549926,.217183,-.596705,0.0*
1,1,0.0,.217183,-.596705*
20,1,0.0,.217183,-.596705,.110267,-.625353,0.0*
1,1,0.0,.110267,-.625353*
20,1,0.0,.110267,-.625353,0.0,-.635,0.0*
1,1,0.0,0.0,-.635*
20,1,0.0,0.0,-.635,-.110267,-.625353,0.0*
1,1,0.0,-.110267,-.625353*
20,1,0.0,-.110267,-.625353,-.217183,-.596705,0.0*
1,1,0.0,-.217183,-.596705*
20,1,0.0,-.217183,-.596705,-.3175,-.549926,0.0*
1,1,0.0,-.3175,-.549926*
20,1,0.0,-.3175,-.549926,-.40817,-.486438,0.0*
1,1,0.0,-.40817,-.486438*
20,1,0.0,-.40817,-.486438,-.486438,-.40817,0.0*
1,1,0.0,-.486438,-.40817*
20,1,0.0,-.486438,-.40817,-.549926,-.3175,0.0*
1,1,0.0,-.549926,-.3175*
20,1,0.0,-.549926,-.3175,-.596705,-.217183,0.0*
1,1,0.0,-.596705,-.217183*
20,1,0.0,-.596705,-.217183,-.625353,-.110267,0.0*
1,1,0.0,-.625353,-.110267*
20,1,0.0,-.625353,-.110267,-.635,0.0,0.0*
1,1,0.0,-.635,0.0*
20,1,0.0,-.635,0.0,-.625353,.110267,0.0*
1,1,0.0,-.625353,.110267*
20,1,0.0,-.625353,.110267,-.596705,.217183,0.0*
1,1,0.0,-.596705,.217183*
20,1,0.0,-.596705,.217183,-.549926,.3175,0.0*
1,1,0.0,-.549926,.3175*
20,1,0.0,-.549926,.3175,-.486438,.40817,0.0*
1,1,0.0,-.486438,.40817*
20,1,0.0,-.486438,.40817,-.40817,.486438,0.0*
1,1,0.0,-.40817,.486438*
20,1,0.0,-.40817,.486438,-.3175,.549926,0.0*
1,1,0.0,-.3175,.549926*
20,1,0.0,-.3175,.549926,-.217183,.596705,0.0*
1,1,0.0,-.217183,.596705*
20,1,0.0,-.217183,.596705,-.110267,.625353,0.0*
1,1,0.0,-.110267,.625353*
20,1,0.0,-.110267,.625353,0.0,.635,0.0*
1,1,0.0,0.0,.635*
20,1,0.0,0.0,.635,.110267,.625353,0.0*
1,1,0.0,.110267,.625353*
20,1,0.0,.110267,.625353,.217183,.596705,0.0*
1,1,0.0,.217183,.596705*
20,1,0.0,.217183,.596705,.3175,.549926,0.0*
1,1,0.0,.3175,.549926*
20,1,0.0,.3175,.549926,.40817,.486438,0.0*
1,1,0.0,.40817,.486438*
20,1,0.0,.40817,.486438,.486438,.40817,0.0*
1,1,0.0,.486438,.40817*
20,1,0.0,.486438,.40817,.549926,.3175,0.0*
1,1,0.0,.549926,.3175*
20,1,0.0,.549926,.3175,.596705,.217183,0.0*
1,1,0.0,.596705,.217183*
20,1,0.0,.596705,.217183,.625353,.110267,0.0*
1,1,0.0,.625353,.110267*
20,1,0.0,.625353,.110267,.635,0.0,0.0*
1,1,0.0,.635,0.0*
1,1,0.0,.3175,0.0*
20,1,0.0,.3175,0.0,-.3175,0.0,0.0*
1,1,0.0,-.3175,0.0*
1,1,0.0,0.0,.3175*
20,1,0.0,0.0,.3175,0.0,-.3175,0.0*
1,1,0.0,0.0,-.3175*
%
%ADD10MACRO10*%
%ADD11C,.15*%
G75*
%LPD*%
G75*
G36*
G01X6411620Y5636850D02*
Y5051640D01*
X6475120D01*
Y1150200D01*
X6411620D01*
Y564990D01*
X6792620D01*
Y1150200D01*
X6729120D01*
Y5051640D01*
X6792620D01*
Y5636850D01*
X6411620D01*
G37*
G36*
G01X5903620Y564990D02*
Y1150200D01*
X7427620D01*
Y564990D01*
X5903620D01*
G37*
G36*
G01Y5051640D02*
Y5636850D01*
X7427620D01*
Y5051640D01*
X5903620D01*
G37*
G54D10*
X-1628270Y-3027500D03*
X1185000Y1535000D03*
X1820000Y1580000D03*
X1230000Y2170000D03*
X1440000Y2930000D03*
X2030000Y910000D03*
X2330000Y2560000D03*
X2180000Y2360000D03*
X2020000Y1850000D03*
X3060000Y820000D03*
X3010000Y1330000D03*
X2790000Y2080000D03*
X3200000Y1890000D03*
X3516640Y1173360D03*
X3640000Y2500000D03*
G54D11*
G01X5188450Y190830D02*
Y290830D01*
X5221790D01*
X5235120Y285830D01*
X5245120Y279160D01*
X5253450Y269160D01*
X5260120Y257490D01*
X5261790Y240830D01*
X5260120Y224160D01*
X5253450Y212500D01*
X5245120Y202490D01*
X5235120Y195830D01*
X5221790Y190830D01*
X5188450D01*
G01X5373690D02*
X5307030D01*
Y290830D01*
X5373690D01*
G01X5347030Y242500D02*
X5307030D01*
G01X5420600Y204160D02*
X5433930Y195830D01*
X5448930Y190830D01*
X5462270D01*
X5475600Y195830D01*
X5485600Y204160D01*
X5490600Y215830D01*
X5487270Y227490D01*
X5478930Y237500D01*
X5463930Y244160D01*
X5443930Y247500D01*
X5432270Y254160D01*
X5427270Y265830D01*
X5430600Y277500D01*
X5438930Y285830D01*
X5450600Y290830D01*
X5462270D01*
X5473930Y287500D01*
X5483930Y279160D01*
G01X5550840Y290830D02*
X5590840D01*
G01X5570840D02*
Y190830D01*
G01X5550840D02*
X5590840D01*
G01X5696080Y240830D02*
X5729410D01*
Y210830D01*
X5719410Y200830D01*
X5707750Y194160D01*
X5691080Y190830D01*
X5674410Y194160D01*
X5662750Y200830D01*
X5652750Y210830D01*
X5646080Y222500D01*
X5642750Y235830D01*
Y247500D01*
X5646080Y257490D01*
X5652750Y269160D01*
X5662750Y279160D01*
X5672740Y285830D01*
X5686080Y290830D01*
X5697750D01*
X5711080Y287500D01*
X5721080Y280830D01*
G01X5762990Y190830D02*
Y290830D01*
X5839650Y190830D01*
Y290830D01*
G01X6068470Y282500D02*
X6058470Y287500D01*
X6046800Y290830D01*
X6033470D01*
X6018460Y285830D01*
X6006800Y277500D01*
X5998470Y267500D01*
X5991800Y250830D01*
X5990130Y235830D01*
X5993470Y220830D01*
X5998470Y210830D01*
X6008470Y200830D01*
X6020130Y194160D01*
X6031800Y190830D01*
X6043470D01*
X6055130Y194160D01*
X6065130Y199160D01*
X6073470Y205830D01*
G01X6113710Y190830D02*
Y290830D01*
X6155370D01*
X6168710Y285830D01*
X6177040Y279160D01*
X6180370Y265830D01*
X6177040Y252500D01*
X6167040Y244160D01*
X6155370Y239160D01*
X6113710D01*
G01X6155370D02*
X6180370Y190830D01*
G01X6262280D02*
X6248940Y192500D01*
X6237280Y199160D01*
X6227280Y209160D01*
X6220610Y220830D01*
X6217280Y234160D01*
Y247500D01*
X6220610Y260830D01*
X6227280Y272500D01*
X6237280Y282500D01*
X6248940Y289160D01*
X6262280Y290830D01*
X6275610Y289160D01*
X6287280Y282500D01*
X6297280Y272500D01*
X6303950Y260830D01*
X6307280Y247500D01*
Y234160D01*
X6303950Y220830D01*
X6297280Y209160D01*
X6287280Y199160D01*
X6275610Y192500D01*
X6262280Y190830D01*
G01X6342520Y204160D02*
X6355850Y195830D01*
X6370850Y190830D01*
X6384190D01*
X6397520Y195830D01*
X6407520Y204160D01*
X6412520Y215830D01*
X6409190Y227490D01*
X6400850Y237500D01*
X6385850Y244160D01*
X6365850Y247500D01*
X6354190Y254160D01*
X6349190Y265830D01*
X6352520Y277500D01*
X6360850Y285830D01*
X6372520Y290830D01*
X6384190D01*
X6395850Y287500D01*
X6405850Y279160D01*
G01X6457760Y204160D02*
X6471090Y195830D01*
X6486090Y190830D01*
X6499430D01*
X6512760Y195830D01*
X6522760Y204160D01*
X6527760Y215830D01*
X6524430Y227490D01*
X6516090Y237500D01*
X6501090Y244160D01*
X6481090Y247500D01*
X6469430Y254160D01*
X6464430Y265830D01*
X6467760Y277500D01*
X6476090Y285830D01*
X6487760Y290830D01*
X6499430D01*
X6511090Y287500D01*
X6521090Y279160D01*
G01X6688240Y204160D02*
X6701570Y195830D01*
X6716570Y190830D01*
X6729910D01*
X6743240Y195830D01*
X6753240Y204160D01*
X6758240Y215830D01*
X6754910Y227490D01*
X6746570Y237500D01*
X6731570Y244160D01*
X6711570Y247500D01*
X6699910Y254160D01*
X6694910Y265830D01*
X6698240Y277500D01*
X6706570Y285830D01*
X6718240Y290830D01*
X6729910D01*
X6741570Y287500D01*
X6751570Y279160D01*
G01X6871810Y190830D02*
X6805150D01*
Y290830D01*
X6871810D01*
G01X6845150Y242500D02*
X6805150D01*
G01X6990390Y282500D02*
X6980390Y287500D01*
X6968720Y290830D01*
X6955390D01*
X6940380Y285830D01*
X6928720Y277500D01*
X6920390Y267500D01*
X6913720Y250830D01*
X6912050Y235830D01*
X6915390Y220830D01*
X6920390Y210830D01*
X6930390Y200830D01*
X6942050Y194160D01*
X6953720Y190830D01*
X6965390D01*
X6977050Y194160D01*
X6987050Y199160D01*
X6995390Y205830D01*
G01X7068960Y290830D02*
Y190830D01*
G01X7030630Y290830D02*
X7107290D01*
G01X7164200D02*
X7204200D01*
G01X7184200D02*
Y190830D01*
G01X7164200D02*
X7204200D01*
G01X7299440D02*
X7286100Y192500D01*
X7274440Y199160D01*
X7264440Y209160D01*
X7257770Y220830D01*
X7254440Y234160D01*
Y247500D01*
X7257770Y260830D01*
X7264440Y272500D01*
X7274440Y282500D01*
X7286100Y289160D01*
X7299440Y290830D01*
X7312770Y289160D01*
X7324440Y282500D01*
X7334440Y272500D01*
X7341110Y260830D01*
X7344440Y247500D01*
Y234160D01*
X7341110Y220830D01*
X7334440Y209160D01*
X7324440Y199160D01*
X7312770Y192500D01*
X7299440Y190830D01*
G01X7376350D02*
Y290830D01*
X7453010Y190830D01*
Y290830D01*
G01X7681830Y282500D02*
X7671830Y287500D01*
X7660160Y290830D01*
X7646830D01*
X7631820Y285830D01*
X7620160Y277500D01*
X7611830Y267500D01*
X7605160Y250830D01*
X7603490Y235830D01*
X7606830Y220830D01*
X7611830Y210830D01*
X7621830Y200830D01*
X7633490Y194160D01*
X7645160Y190830D01*
X7656830D01*
X7668490Y194160D01*
X7678490Y199160D01*
X7686830Y205830D01*
G01X7725400Y190830D02*
Y290830D01*
G01X7795400D02*
Y190830D01*
G01Y240830D02*
X7725400D01*
G01X7833970Y190830D02*
X7875640Y290830D01*
X7917310Y190830D01*
G01X7902310Y225830D02*
X7848970D01*
G01X7957550Y190830D02*
Y290830D01*
X7999210D01*
X8012550Y285830D01*
X8020880Y279160D01*
X8024210Y265830D01*
X8020880Y252500D01*
X8010880Y244160D01*
X7999210Y239160D01*
X7957550D01*
G01X7999210D02*
X8024210Y190830D01*
G01X8106120Y290830D02*
Y190830D01*
G01X8067790Y290830D02*
X8144450D01*
G01X5117500Y157500D02*
X5217500D01*
G01X5232740D02*
X5332740D01*
G01X5347980D02*
X5447980D01*
G01X5463220D02*
X5563220D01*
G01X5578460D02*
X5678460D01*
G01X5693700D02*
X5793700D01*
G01X5808940D02*
X5908940D01*
G01X5924180D02*
X6024180D01*
G01X6039420D02*
X6139420D01*
G01X6154660D02*
X6254660D01*
G01X6269900D02*
X6369900D01*
G01X6385140D02*
X6485140D01*
G01X6500380D02*
X6600380D01*
G01X6615620D02*
X6715620D01*
G01X6730860D02*
X6830860D01*
G01X6846100D02*
X6946100D01*
G01X6961340D02*
X7061340D01*
G01X7076580D02*
X7176580D01*
G01X7191820D02*
X7291820D01*
G01X7307060D02*
X7407060D01*
G01X7422300D02*
X7522300D01*
G01X7537540D02*
X7637540D01*
G01X7652780D02*
X7752780D01*
G01X7768020D02*
X7868020D01*
G01X7883260D02*
X7983260D01*
G01X7998500D02*
X8098500D01*
G01X8113740D02*
X8213740D01*
G01X5225120Y110830D02*
Y10830D01*
G01X5186790Y110830D02*
X5263450D01*
G01X5340360Y10830D02*
X5327020Y12500D01*
X5315360Y19160D01*
X5305360Y29160D01*
X5298690Y40830D01*
X5295360Y54160D01*
Y67500D01*
X5298690Y80830D01*
X5305360Y92500D01*
X5315360Y102500D01*
X5327020Y109160D01*
X5340360Y110830D01*
X5353690Y109160D01*
X5365360Y102500D01*
X5375360Y92500D01*
X5382030Y80830D01*
X5385360Y67500D01*
Y54160D01*
X5382030Y40830D01*
X5375360Y29160D01*
X5365360Y19160D01*
X5353690Y12500D01*
X5340360Y10830D01*
G01X5455600Y110830D02*
Y10830D01*
G01X5417270Y110830D02*
X5493930D01*
G01X5529170Y10830D02*
X5570840Y110830D01*
X5612510Y10830D01*
G01X5597510Y45830D02*
X5544170D01*
G01X5652750Y110830D02*
Y10830D01*
X5719410D01*
G01X5916560Y110830D02*
Y10830D01*
G01X5878230Y110830D02*
X5954890D01*
G01X5996800Y10830D02*
Y110830D01*
G01X6066800D02*
Y10830D01*
G01Y60830D02*
X5996800D01*
G01X6127040Y110830D02*
X6167040D01*
G01X6147040D02*
Y10830D01*
G01X6127040D02*
X6167040D01*
G01X6298950Y102500D02*
X6288950Y107500D01*
X6277280Y110830D01*
X6263950D01*
X6248940Y105830D01*
X6237280Y97500D01*
X6228950Y87500D01*
X6222280Y70830D01*
X6220610Y55830D01*
X6223950Y40830D01*
X6228950Y30830D01*
X6238950Y20830D01*
X6250610Y14160D01*
X6262280Y10830D01*
X6273950D01*
X6285610Y14160D01*
X6295610Y19160D01*
X6303950Y25830D01*
G01X6340850Y10830D02*
Y110830D01*
G01X6404190D02*
X6340850Y49160D01*
G01X6414190Y10830D02*
X6369190Y77490D01*
G01X6454430Y10830D02*
Y110830D01*
X6531090Y10830D01*
Y110830D01*
G01X6641330Y10830D02*
X6574670D01*
Y110830D01*
X6641330D01*
G01X6614670Y62500D02*
X6574670D01*
G01X6688240Y24160D02*
X6701570Y15830D01*
X6716570Y10830D01*
X6729910D01*
X6743240Y15830D01*
X6753240Y24160D01*
X6758240Y35830D01*
X6754910Y47490D01*
X6746570Y57500D01*
X6731570Y64160D01*
X6711570Y67500D01*
X6699910Y74160D01*
X6694910Y85830D01*
X6698240Y97500D01*
X6706570Y105830D01*
X6718240Y110830D01*
X6729910D01*
X6741570Y107500D01*
X6751570Y99160D01*
G01X6803480Y24160D02*
X6816810Y15830D01*
X6831810Y10830D01*
X6845150D01*
X6858480Y15830D01*
X6868480Y24160D01*
X6873480Y35830D01*
X6870150Y47490D01*
X6861810Y57500D01*
X6846810Y64160D01*
X6826810Y67500D01*
X6815150Y74160D01*
X6810150Y85830D01*
X6813480Y97500D01*
X6821810Y105830D01*
X6833480Y110830D01*
X6845150D01*
X6856810Y107500D01*
X6866810Y99160D01*
G01X7068960Y110830D02*
X7055620Y107500D01*
X7045630Y99160D01*
X7038960Y89160D01*
X7033960Y75830D01*
X7032290Y60830D01*
X7033960Y45830D01*
X7038960Y32500D01*
X7045630Y22490D01*
X7055620Y14160D01*
X7068960Y10830D01*
X7082290Y14160D01*
X7092290Y22490D01*
X7098960Y32500D01*
X7103960Y45830D01*
X7105630Y60830D01*
X7103960Y75830D01*
X7098960Y89160D01*
X7092290Y99160D01*
X7082290Y107500D01*
X7068960Y110830D01*
G01X7184200Y7500D02*
X7180870Y9160D01*
Y12500D01*
X7184200Y14160D01*
X7187530Y12500D01*
Y9160D01*
X7184200Y7500D01*
G01X7267770Y94160D02*
X7277770Y104160D01*
X7289440Y109160D01*
X7302770Y110830D01*
X7319440Y107500D01*
X7331110Y99160D01*
X7334440Y89160D01*
X7332770Y79160D01*
X7326110Y70830D01*
X7292770Y54160D01*
X7277770Y42500D01*
X7267770Y25830D01*
X7264440Y10830D01*
X7334440D01*
G01X7383010Y52490D02*
X7394680Y64160D01*
X7404680Y70830D01*
X7418010Y74160D01*
X7429680Y70830D01*
X7438010Y64160D01*
X7444680Y54160D01*
X7446350Y42500D01*
X7444680Y32500D01*
X7438010Y22490D01*
X7428010Y14160D01*
X7416350Y10830D01*
X7403010Y14160D01*
X7391350Y24160D01*
X7384680Y39160D01*
X7383010Y55830D01*
X7386350Y77490D01*
X7391350Y89160D01*
X7399680Y100830D01*
X7411350Y109160D01*
X7423010Y110830D01*
X7434680Y107500D01*
X7443010Y99160D01*
G01X7549920Y10830D02*
Y110830D01*
X7488250Y39160D01*
X7571590D01*
G01X7645160Y10830D02*
Y110830D01*
X7625160Y90830D01*
G01Y10830D02*
X7665160D01*
G01X7728730Y52490D02*
X7740400Y64160D01*
X7750400Y70830D01*
X7763730Y74160D01*
X7775400Y70830D01*
X7783730Y64160D01*
X7790400Y54160D01*
X7792070Y42500D01*
X7790400Y32500D01*
X7783730Y22490D01*
X7773730Y14160D01*
X7762070Y10830D01*
X7748730Y14160D01*
X7737070Y24160D01*
X7730400Y39160D01*
X7728730Y55830D01*
X7732070Y77490D01*
X7737070Y89160D01*
X7745400Y100830D01*
X7757070Y109160D01*
X7768730Y110830D01*
X7780400Y107500D01*
X7788730Y99160D01*
G01X7947550Y10830D02*
Y110830D01*
X7990880Y27500D01*
X8034210Y110830D01*
Y10830D01*
G01X8062790D02*
Y110830D01*
X8106120Y27500D01*
X8149450Y110830D01*
Y10830D01*
G01X6602120Y5786850D02*
X6502120D01*
X6522120Y5766850D01*
G01X6602120D02*
Y5806850D01*
G01X6568790Y5880420D02*
Y5923760D01*
G01X6518790Y5985660D02*
X6508790Y5995660D01*
X6503790Y6007330D01*
X6502120Y6020660D01*
X6505450Y6037330D01*
X6513790Y6049000D01*
X6523790Y6052330D01*
X6533790Y6050660D01*
X6542120Y6044000D01*
X6558790Y6010660D01*
X6570450Y5995660D01*
X6587120Y5985660D01*
X6602120Y5982330D01*
Y6052330D01*
G01X7559530Y957600D02*
Y857600D01*
X7626190D01*
G01X7676430Y940930D02*
X7686430Y950930D01*
X7698100Y955930D01*
X7711430Y957600D01*
X7728100Y954270D01*
X7739770Y945930D01*
X7743100Y935930D01*
X7741430Y925930D01*
X7734770Y917600D01*
X7701430Y900930D01*
X7686430Y889270D01*
X7676430Y872600D01*
X7673100Y857600D01*
X7743100D01*
G01X7951910Y910930D02*
X7958580Y915930D01*
X7963580Y924260D01*
X7966910Y935930D01*
X7963580Y945930D01*
X7956910Y952600D01*
X7945250Y957600D01*
X7900250D01*
Y857600D01*
X7955250D01*
X7966910Y864270D01*
X7973580Y874270D01*
X7976910Y885930D01*
X7973580Y897600D01*
X7963580Y907600D01*
X7951910Y910930D01*
X7900250D01*
G01X8053820Y857600D02*
X8040480Y859270D01*
X8028820Y865930D01*
X8018820Y875930D01*
X8012150Y887600D01*
X8008820Y900930D01*
Y914270D01*
X8012150Y927600D01*
X8018820Y939270D01*
X8028820Y949270D01*
X8040480Y955930D01*
X8053820Y957600D01*
X8067150Y955930D01*
X8078820Y949270D01*
X8088820Y939270D01*
X8095490Y927600D01*
X8098820Y914270D01*
Y900930D01*
X8095490Y887600D01*
X8088820Y875930D01*
X8078820Y865930D01*
X8067150Y859270D01*
X8053820Y857600D01*
G01X8169060Y957600D02*
Y857600D01*
G01X8130730Y957600D02*
X8207390D01*
G01X8284300D02*
Y857600D01*
G01X8245970Y957600D02*
X8322630D01*
G01X8399540Y857600D02*
X8386200Y859270D01*
X8374540Y865930D01*
X8364540Y875930D01*
X8357870Y887600D01*
X8354540Y900930D01*
Y914270D01*
X8357870Y927600D01*
X8364540Y939270D01*
X8374540Y949270D01*
X8386200Y955930D01*
X8399540Y957600D01*
X8412870Y955930D01*
X8424540Y949270D01*
X8434540Y939270D01*
X8441210Y927600D01*
X8444540Y914270D01*
Y900930D01*
X8441210Y887600D01*
X8434540Y875930D01*
X8424540Y865930D01*
X8412870Y859270D01*
X8399540Y857600D01*
G01X8471450D02*
Y957600D01*
X8514780Y874270D01*
X8558110Y957600D01*
Y857600D01*
G01X8781930Y949270D02*
X8771930Y954270D01*
X8760260Y957600D01*
X8746930D01*
X8731920Y952600D01*
X8720260Y944270D01*
X8711930Y934270D01*
X8705260Y917600D01*
X8703590Y902600D01*
X8706930Y887600D01*
X8711930Y877600D01*
X8721930Y867600D01*
X8733590Y860930D01*
X8745260Y857600D01*
X8756930D01*
X8768590Y860930D01*
X8778590Y865930D01*
X8786930Y872600D01*
G01X8860500Y857600D02*
X8847160Y859270D01*
X8835500Y865930D01*
X8825500Y875930D01*
X8818830Y887600D01*
X8815500Y900930D01*
Y914270D01*
X8818830Y927600D01*
X8825500Y939270D01*
X8835500Y949270D01*
X8847160Y955930D01*
X8860500Y957600D01*
X8873830Y955930D01*
X8885500Y949270D01*
X8895500Y939270D01*
X8902170Y927600D01*
X8905500Y914270D01*
Y900930D01*
X8902170Y887600D01*
X8895500Y875930D01*
X8885500Y865930D01*
X8873830Y859270D01*
X8860500Y857600D01*
G01X8937410D02*
Y957600D01*
X9014070Y857600D01*
Y957600D01*
G01X9054310Y857600D02*
Y957600D01*
X9087650D01*
X9100980Y952600D01*
X9110980Y945930D01*
X9119310Y935930D01*
X9125980Y924260D01*
X9127650Y907600D01*
X9125980Y890930D01*
X9119310Y879270D01*
X9110980Y869260D01*
X9100980Y862600D01*
X9087650Y857600D01*
X9054310D01*
G01X9169550Y957600D02*
Y885930D01*
X9176220Y870930D01*
X9189550Y860930D01*
X9206220Y857600D01*
X9222890Y860930D01*
X9236220Y870930D01*
X9242890Y885930D01*
Y957600D01*
G01X9358130Y949270D02*
X9348130Y954270D01*
X9336460Y957600D01*
X9323130D01*
X9308120Y952600D01*
X9296460Y944270D01*
X9288130Y934270D01*
X9281460Y917600D01*
X9279790Y902600D01*
X9283130Y887600D01*
X9288130Y877600D01*
X9298130Y867600D01*
X9309790Y860930D01*
X9321460Y857600D01*
X9333130D01*
X9344790Y860930D01*
X9354790Y865930D01*
X9363130Y872600D01*
G01X9436700Y957600D02*
Y857600D01*
G01X9398370Y957600D02*
X9475030D01*
G01X9551940Y857600D02*
X9538600Y859270D01*
X9526940Y865930D01*
X9516940Y875930D01*
X9510270Y887600D01*
X9506940Y900930D01*
Y914270D01*
X9510270Y927600D01*
X9516940Y939270D01*
X9526940Y949270D01*
X9538600Y955930D01*
X9551940Y957600D01*
X9565270Y955930D01*
X9576940Y949270D01*
X9586940Y939270D01*
X9593610Y927600D01*
X9596940Y914270D01*
Y900930D01*
X9593610Y887600D01*
X9586940Y875930D01*
X9576940Y865930D01*
X9565270Y859270D01*
X9551940Y857600D01*
G01X9633850D02*
Y957600D01*
X9675510D01*
X9688850Y952600D01*
X9697180Y945930D01*
X9700510Y932600D01*
X9697180Y919270D01*
X9687180Y910930D01*
X9675510Y905930D01*
X9633850D01*
G01X9675510D02*
X9700510Y857600D01*
G01X7786670Y428330D02*
X7860010Y501660D01*
G01X7823340Y514990D02*
Y414990D01*
G01X7860010Y428330D02*
X7786670Y501660D01*
G01X7773340Y464990D02*
X7873340D01*
G01X8134060Y444990D02*
X8147390Y436660D01*
X8162390Y431660D01*
X8175730D01*
X8189060Y436660D01*
X8199060Y444990D01*
X8204060Y456660D01*
X8200730Y468320D01*
X8192390Y478330D01*
X8177390Y484990D01*
X8157390Y488330D01*
X8145730Y494990D01*
X8140730Y506660D01*
X8144060Y518330D01*
X8152390Y526660D01*
X8164060Y531660D01*
X8175730D01*
X8187390Y528330D01*
X8197390Y519990D01*
G01X8247630Y531660D02*
Y459990D01*
X8254300Y444990D01*
X8267630Y434990D01*
X8284300Y431660D01*
X8300970Y434990D01*
X8314300Y444990D01*
X8320970Y459990D01*
Y531660D01*
G01X8366210Y431660D02*
Y531660D01*
X8407870D01*
X8421210Y526660D01*
X8429540Y519990D01*
X8432870Y506660D01*
X8429540Y493330D01*
X8419540Y484990D01*
X8407870Y479990D01*
X8366210D01*
G01X8407870D02*
X8432870Y431660D01*
G01X8483110D02*
Y531660D01*
X8546450D01*
G01X8523110Y483330D02*
X8483110D01*
G01X8588350Y431660D02*
X8630020Y531660D01*
X8671690Y431660D01*
G01X8656690Y466660D02*
X8603350D01*
G01X8781930Y523330D02*
X8771930Y528330D01*
X8760260Y531660D01*
X8746930D01*
X8731920Y526660D01*
X8720260Y518330D01*
X8711930Y508330D01*
X8705260Y491660D01*
X8703590Y476660D01*
X8706930Y461660D01*
X8711930Y451660D01*
X8721930Y441660D01*
X8733590Y434990D01*
X8745260Y431660D01*
X8756930D01*
X8768590Y434990D01*
X8778590Y439990D01*
X8786930Y446660D01*
G01X8893830Y431660D02*
X8827170D01*
Y531660D01*
X8893830D01*
G01X8867170Y483330D02*
X8827170D01*
G01X7786670Y3097590D02*
X7860010Y3170920D01*
G01X7823340Y3184250D02*
Y3084250D01*
G01X7860010Y3097590D02*
X7786670Y3170920D01*
G01X7773340Y3134250D02*
X7873340D01*
G01X8132390Y3100920D02*
Y3200920D01*
X8165730D01*
X8179060Y3195920D01*
X8189060Y3189250D01*
X8197390Y3179250D01*
X8204060Y3167580D01*
X8205730Y3150920D01*
X8204060Y3134250D01*
X8197390Y3122590D01*
X8189060Y3112580D01*
X8179060Y3105920D01*
X8165730Y3100920D01*
X8132390D01*
G01X8264300Y3200920D02*
X8304300D01*
G01X8284300D02*
Y3100920D01*
G01X8264300D02*
X8304300D01*
G01X8432870D02*
X8366210D01*
Y3200920D01*
X8432870D01*
G01X8406210Y3152590D02*
X8366210D01*
G01X8481450Y3200920D02*
Y3100920D01*
X8548110D01*
G01X8663350D02*
X8596690D01*
Y3200920D01*
X8663350D01*
G01X8636690Y3152590D02*
X8596690D01*
G01X8781930Y3192590D02*
X8771930Y3197590D01*
X8760260Y3200920D01*
X8746930D01*
X8731920Y3195920D01*
X8720260Y3187590D01*
X8711930Y3177590D01*
X8705260Y3160920D01*
X8703590Y3145920D01*
X8706930Y3130920D01*
X8711930Y3120920D01*
X8721930Y3110920D01*
X8733590Y3104250D01*
X8745260Y3100920D01*
X8756930D01*
X8768590Y3104250D01*
X8778590Y3109250D01*
X8786930Y3115920D01*
G01X8860500Y3200920D02*
Y3100920D01*
G01X8822170Y3200920D02*
X8898830D01*
G01X8942410Y3100920D02*
Y3200920D01*
X8984070D01*
X8997410Y3195920D01*
X9005740Y3189250D01*
X9009070Y3175920D01*
X9005740Y3162590D01*
X8995740Y3154250D01*
X8984070Y3149250D01*
X8942410D01*
G01X8984070D02*
X9009070Y3100920D01*
G01X9070980Y3200920D02*
X9110980D01*
G01X9090980D02*
Y3100920D01*
G01X9070980D02*
X9110980D01*
G01X9242890Y3192590D02*
X9232890Y3197590D01*
X9221220Y3200920D01*
X9207890D01*
X9192880Y3195920D01*
X9181220Y3187590D01*
X9172890Y3177590D01*
X9166220Y3160920D01*
X9164550Y3145920D01*
X9167890Y3130920D01*
X9172890Y3120920D01*
X9182890Y3110920D01*
X9194550Y3104250D01*
X9206220Y3100920D01*
X9217890D01*
X9229550Y3104250D01*
X9239550Y3109250D01*
X9247890Y3115920D01*
G01X7559530Y5444250D02*
Y5344250D01*
X7626190D01*
G01X7708100D02*
Y5444250D01*
X7688100Y5424250D01*
G01Y5344250D02*
X7728100D01*
G01X7938580Y5444250D02*
Y5344250D01*
G01X7900250Y5444250D02*
X7976910D01*
G01X8053820Y5344250D02*
X8040480Y5345920D01*
X8028820Y5352580D01*
X8018820Y5362580D01*
X8012150Y5374250D01*
X8008820Y5387580D01*
Y5400920D01*
X8012150Y5414250D01*
X8018820Y5425920D01*
X8028820Y5435920D01*
X8040480Y5442580D01*
X8053820Y5444250D01*
X8067150Y5442580D01*
X8078820Y5435920D01*
X8088820Y5425920D01*
X8095490Y5414250D01*
X8098820Y5400920D01*
Y5387580D01*
X8095490Y5374250D01*
X8088820Y5362580D01*
X8078820Y5352580D01*
X8067150Y5345920D01*
X8053820Y5344250D01*
G01X8135730D02*
Y5444250D01*
X8175730D01*
X8189060Y5439250D01*
X8199060Y5427580D01*
X8202390Y5414250D01*
X8199060Y5400920D01*
X8190730Y5390920D01*
X8175730Y5385910D01*
X8135730D01*
G01X8436210Y5435920D02*
X8426210Y5440920D01*
X8414540Y5444250D01*
X8401210D01*
X8386200Y5439250D01*
X8374540Y5430920D01*
X8366210Y5420920D01*
X8359540Y5404250D01*
X8357870Y5389250D01*
X8361210Y5374250D01*
X8366210Y5364250D01*
X8376210Y5354250D01*
X8387870Y5347580D01*
X8399540Y5344250D01*
X8411210D01*
X8422870Y5347580D01*
X8432870Y5352580D01*
X8441210Y5359250D01*
G01X8514780Y5344250D02*
X8501440Y5345920D01*
X8489780Y5352580D01*
X8479780Y5362580D01*
X8473110Y5374250D01*
X8469780Y5387580D01*
Y5400920D01*
X8473110Y5414250D01*
X8479780Y5425920D01*
X8489780Y5435920D01*
X8501440Y5442580D01*
X8514780Y5444250D01*
X8528110Y5442580D01*
X8539780Y5435920D01*
X8549780Y5425920D01*
X8556450Y5414250D01*
X8559780Y5400920D01*
Y5387580D01*
X8556450Y5374250D01*
X8549780Y5362580D01*
X8539780Y5352580D01*
X8528110Y5345920D01*
X8514780Y5344250D01*
G01X8591690D02*
Y5444250D01*
X8668350Y5344250D01*
Y5444250D01*
G01X8708590Y5344250D02*
Y5444250D01*
X8741930D01*
X8755260Y5439250D01*
X8765260Y5432580D01*
X8773590Y5422580D01*
X8780260Y5410910D01*
X8781930Y5394250D01*
X8780260Y5377580D01*
X8773590Y5365920D01*
X8765260Y5355910D01*
X8755260Y5349250D01*
X8741930Y5344250D01*
X8708590D01*
G01X8823830Y5444250D02*
Y5372580D01*
X8830500Y5357580D01*
X8843830Y5347580D01*
X8860500Y5344250D01*
X8877170Y5347580D01*
X8890500Y5357580D01*
X8897170Y5372580D01*
Y5444250D01*
G01X9012410Y5435920D02*
X9002410Y5440920D01*
X8990740Y5444250D01*
X8977410D01*
X8962400Y5439250D01*
X8950740Y5430920D01*
X8942410Y5420920D01*
X8935740Y5404250D01*
X8934070Y5389250D01*
X8937410Y5374250D01*
X8942410Y5364250D01*
X8952410Y5354250D01*
X8964070Y5347580D01*
X8975740Y5344250D01*
X8987410D01*
X8999070Y5347580D01*
X9009070Y5352580D01*
X9017410Y5359250D01*
G01X9090980Y5444250D02*
Y5344250D01*
G01X9052650Y5444250D02*
X9129310D01*
G01X9206220Y5344250D02*
X9192880Y5345920D01*
X9181220Y5352580D01*
X9171220Y5362580D01*
X9164550Y5374250D01*
X9161220Y5387580D01*
Y5400920D01*
X9164550Y5414250D01*
X9171220Y5425920D01*
X9181220Y5435920D01*
X9192880Y5442580D01*
X9206220Y5444250D01*
X9219550Y5442580D01*
X9231220Y5435920D01*
X9241220Y5425920D01*
X9247890Y5414250D01*
X9251220Y5400920D01*
Y5387580D01*
X9247890Y5374250D01*
X9241220Y5362580D01*
X9231220Y5352580D01*
X9219550Y5345920D01*
X9206220Y5344250D01*
G01X9288130D02*
Y5444250D01*
X9329790D01*
X9343130Y5439250D01*
X9351460Y5432580D01*
X9354790Y5419250D01*
X9351460Y5405920D01*
X9341460Y5397580D01*
X9329790Y5392580D01*
X9288130D01*
G01X9329790D02*
X9354790Y5344250D01*
G01X7786670Y5666850D02*
X7860010Y5740180D01*
G01X7823340Y5753510D02*
Y5653510D01*
G01X7860010Y5666850D02*
X7786670Y5740180D01*
G01X7773340Y5703510D02*
X7873340D01*
G01X8134060Y5683510D02*
X8147390Y5675180D01*
X8162390Y5670180D01*
X8175730D01*
X8189060Y5675180D01*
X8199060Y5683510D01*
X8204060Y5695180D01*
X8200730Y5706840D01*
X8192390Y5716850D01*
X8177390Y5723510D01*
X8157390Y5726850D01*
X8145730Y5733510D01*
X8140730Y5745180D01*
X8144060Y5756850D01*
X8152390Y5765180D01*
X8164060Y5770180D01*
X8175730D01*
X8187390Y5766850D01*
X8197390Y5758510D01*
G01X8247630Y5770180D02*
Y5698510D01*
X8254300Y5683510D01*
X8267630Y5673510D01*
X8284300Y5670180D01*
X8300970Y5673510D01*
X8314300Y5683510D01*
X8320970Y5698510D01*
Y5770180D01*
G01X8366210Y5670180D02*
Y5770180D01*
X8407870D01*
X8421210Y5765180D01*
X8429540Y5758510D01*
X8432870Y5745180D01*
X8429540Y5731850D01*
X8419540Y5723510D01*
X8407870Y5718510D01*
X8366210D01*
G01X8407870D02*
X8432870Y5670180D01*
G01X8483110D02*
Y5770180D01*
X8546450D01*
G01X8523110Y5721850D02*
X8483110D01*
G01X8588350Y5670180D02*
X8630020Y5770180D01*
X8671690Y5670180D01*
G01X8656690Y5705180D02*
X8603350D01*
G01X8781930Y5761850D02*
X8771930Y5766850D01*
X8760260Y5770180D01*
X8746930D01*
X8731920Y5765180D01*
X8720260Y5756850D01*
X8711930Y5746850D01*
X8705260Y5730180D01*
X8703590Y5715180D01*
X8706930Y5700180D01*
X8711930Y5690180D01*
X8721930Y5680180D01*
X8733590Y5673510D01*
X8745260Y5670180D01*
X8756930D01*
X8768590Y5673510D01*
X8778590Y5678510D01*
X8786930Y5685180D01*
G01X8893830Y5670180D02*
X8827170D01*
Y5770180D01*
X8893830D01*
G01X8867170Y5721850D02*
X8827170D01*
M02*
