G04 ================== begin FILE IDENTIFICATION RECORD ==================*
G04 Layout Name:  C:/Users/eliza/AppData/Roaming/SPB_Data/unnamed.brd*
G04 Film Name:    SPTOP*
G04 File Format:  Gerber RS274X*
G04 File Origin:  Cadence Allegro 17.2-S025*
G04 Origin Date:  Sat Dec 14 10:02:13 2024*
G04 *
G04 Layer:  VIA CLASS/PASTEMASK_TOP*
G04 Layer:  PIN/PASTEMASK_TOP*
G04 Layer:  PACKAGE GEOMETRY/PASTEMASK_TOP*
G04 Layer:  DRC ERROR CLASS/PASTEMASK_TOP*
G04 *
G04 Offset:    (0.0000 0.0000)*
G04 Mirror:    No*
G04 Mode:      Positive*
G04 Rotation:  0*
G04 FullContactRelief:  No*
G04 UndefLineWidth:     0.0000*
G04 ================== end FILE IDENTIFICATION RECORD ====================*
%FSLAX25Y25*MOMM*%
%IR0*IPPOS*OFA0.00000B0.00000*MIA0B0*SFA1.00000B1.00000*%
%ADD14R,.8X1.1*%
%ADD12R,1.1X.8*%
%ADD13C,1.*%
%ADD11R,1.27X1.27*%
%ADD10R,3.048X1.9304*%
%ADD15R,1.4224X1.8288*%
%ADD16R,5.588X5.842*%
%LPD*%
G75*
G54D10*
X360000Y2990000D03*
Y3589440D03*
X3620000Y1560560D03*
Y2160000D03*
G54D11*
X560000Y1310000D03*
X346640D03*
X390000Y2070000D03*
Y1856640D03*
X930000Y2900000D03*
Y2686640D03*
X1320000Y960000D03*
X1533360D03*
X1790000Y3530000D03*
Y3743360D03*
X2030000Y1420000D03*
Y1206640D03*
X2490000Y1210000D03*
Y1423360D03*
X2210000Y3530000D03*
Y3743360D03*
X3200000Y966640D03*
X2980000Y1530000D03*
X3193360D03*
X3200000Y1180000D03*
X2710000Y3530000D03*
Y3743360D03*
X3690000Y960000D03*
Y1173360D03*
G54D12*
X965740Y1685860D03*
X760000Y1790000D03*
Y1581720D03*
X975740Y2235860D03*
X770000Y2340000D03*
Y2131720D03*
X1585740Y2065860D03*
X1380000Y2170000D03*
Y1961720D03*
X2124260Y2804140D03*
X2330000Y2700000D03*
Y2908280D03*
G54D13*
X950000Y3500000D03*
X3500000Y500000D03*
G54D14*
X1424140Y1515740D03*
X1320000Y1310000D03*
X1528280D03*
X1821720Y2480000D03*
X1360000Y2550000D03*
X1568280D03*
X1464140Y2755740D03*
X1335860Y3104260D03*
X1440000Y3310000D03*
X1231720D03*
X2200000Y1850000D03*
X2408280D03*
X2304140Y2055740D03*
X1925860Y2274260D03*
X2030000Y2480000D03*
X3094140Y2285740D03*
X2990000Y2080000D03*
X3198280D03*
X2814140Y2855740D03*
X2710000Y2650000D03*
X2918280D03*
G54D15*
X3240000Y2770000D03*
X3697200D03*
G54D16*
X3468600Y3506600D03*
M02*
