G04 ================== begin FILE IDENTIFICATION RECORD ==================*
G04 Layout Name:  C:/Users/eliza/AppData/Roaming/SPB_Data/unnamed.brd*
G04 Film Name:    SSTOP*
G04 File Format:  Gerber RS274X*
G04 File Origin:  Cadence Allegro 17.2-S025*
G04 Origin Date:  Sat Dec 14 10:02:13 2024*
G04 *
G04 Layer:  REF DES/SILKSCREEN_TOP*
G04 Layer:  PACKAGE GEOMETRY/SILKSCREEN_TOP*
G04 Layer:  BOARD GEOMETRY/SILKSCREEN_TOP*
G04 *
G04 Offset:    (0.0000 0.0000)*
G04 Mirror:    No*
G04 Mode:      Positive*
G04 Rotation:  0*
G04 FullContactRelief:  No*
G04 UndefLineWidth:     0.0000*
G04 ================== end FILE IDENTIFICATION RECORD ====================*
%FSLAX25Y25*MOMM*%
%IR0*IPPOS*OFA0.00000B0.00000*MIA0B0*SFA1.00000B1.00000*%
%ADD10C,.1*%
%ADD11C,.15*%
%ADD12C,.1524*%
G75*
%LPD*%
G75*
G54D10*
G01X840000Y1530000D02*
X940000D01*
Y1610000D01*
G01X780000Y1730000D02*
Y1650000D01*
G01X940000Y1750000D02*
Y1850000D01*
X840000D01*
G01X850000Y2080000D02*
X950000D01*
Y2160000D01*
G01X790000Y2280000D02*
Y2200000D01*
G01X950000Y2300000D02*
Y2400000D01*
X850000D01*
G01X1580000Y1390000D02*
Y1490000D01*
X1500000D01*
G01X1380000Y1330000D02*
X1460000D01*
G01X1360000Y1490000D02*
X1260000D01*
Y1390000D01*
G01X1460000Y1910000D02*
X1560000D01*
Y1990000D01*
G01X1400000Y2110000D02*
Y2030000D01*
G01X1560000Y2130000D02*
Y2230000D01*
X1460000D01*
G01X1770000Y2400000D02*
Y2300000D01*
X1850000D01*
G01X1620000Y2630000D02*
Y2730000D01*
X1540000D01*
G01X1420000Y2570000D02*
X1500000D01*
G01X1400000Y2730000D02*
X1300000D01*
Y2630000D01*
G01X1180000Y3230000D02*
Y3130000D01*
X1260000D01*
G01X1380000Y3290000D02*
X1300000D01*
G01X1400000Y3130000D02*
X1500000D01*
Y3230000D01*
G01X2460000Y1930000D02*
Y2030000D01*
X2380000D01*
G01X2260000Y1870000D02*
X2340000D01*
G01X2240000Y2030000D02*
X2140000D01*
Y1930000D01*
G01X1970000Y2460000D02*
X1890000D01*
G01X1990000Y2300000D02*
X2090000D01*
Y2400000D01*
G01X2250000Y2960000D02*
X2150000D01*
Y2880000D01*
G01X2310000Y2760000D02*
Y2840000D01*
G01X2150000Y2740000D02*
Y2640000D01*
X2250000D01*
G01X3250000Y2160000D02*
Y2260000D01*
X3170000D01*
G01X3050000Y2100000D02*
X3130000D01*
G01X3030000Y2260000D02*
X2930000D01*
Y2160000D01*
G01X2970000Y2730000D02*
Y2830000D01*
X2890000D01*
G01X2770000Y2670000D02*
X2850000D01*
G01X2750000Y2830000D02*
X2650000D01*
Y2730000D01*
G54D11*
G01X240000Y290000D02*
Y390000D01*
X178330Y318330D01*
X261670D01*
G01X298570Y310000D02*
X308570Y298330D01*
X321900Y291670D01*
X336910Y290000D01*
X350240Y291670D01*
X363570Y300000D01*
X371910Y310000D01*
X373570Y320000D01*
X370240Y331660D01*
X358570Y340000D01*
X346910Y343330D01*
X331910D01*
G01X346910D02*
X356910Y348330D01*
X365240Y356660D01*
X368570Y366670D01*
X365240Y376670D01*
X356910Y385000D01*
X341910Y390000D01*
X326910Y388330D01*
X311910Y381670D01*
G01X413810Y310000D02*
X423810Y298330D01*
X437140Y291670D01*
X452150Y290000D01*
X465480Y291670D01*
X478810Y300000D01*
X487150Y310000D01*
X488810Y320000D01*
X485480Y331660D01*
X473810Y340000D01*
X462150Y343330D01*
X447150D01*
G01X462150D02*
X472150Y348330D01*
X480480Y356660D01*
X483810Y366670D01*
X480480Y376670D01*
X472150Y385000D01*
X457150Y390000D01*
X442150Y388330D01*
X427150Y381670D01*
G01X602390D02*
X592390Y386670D01*
X580720Y390000D01*
X567390D01*
X552380Y385000D01*
X540720Y376670D01*
X532390Y366670D01*
X525720Y350000D01*
X524050Y335000D01*
X527390Y320000D01*
X532390Y310000D01*
X542390Y300000D01*
X554050Y293330D01*
X565720Y290000D01*
X577390D01*
X589050Y293330D01*
X599050Y298330D01*
X607390Y305000D01*
G01X762870Y290000D02*
Y390000D01*
X802870D01*
X816200Y385000D01*
X826200Y373330D01*
X829530Y360000D01*
X826200Y346670D01*
X817870Y336670D01*
X802870Y331660D01*
X762870D01*
G01X911440Y290000D02*
Y390000D01*
X891440Y370000D01*
G01Y290000D02*
X931440D01*
G01X990010D02*
Y390000D01*
X1023350D01*
X1036680Y385000D01*
X1046680Y378330D01*
X1055010Y368330D01*
X1061680Y356660D01*
X1063350Y340000D01*
X1061680Y323330D01*
X1055010Y311670D01*
X1046680Y301660D01*
X1036680Y295000D01*
X1023350Y290000D01*
X990010D01*
G01X1178590Y381670D02*
X1168590Y386670D01*
X1156920Y390000D01*
X1143590D01*
X1128580Y385000D01*
X1116920Y376670D01*
X1108590Y366670D01*
X1101920Y350000D01*
X1100250Y335000D01*
X1103590Y320000D01*
X1108590Y310000D01*
X1118590Y300000D01*
X1130250Y293330D01*
X1141920Y290000D01*
X1153590D01*
X1165250Y293330D01*
X1175250Y298330D01*
X1183590Y305000D01*
G01X1290490Y290000D02*
X1223830D01*
Y390000D01*
X1290490D01*
G01X1263830Y341670D02*
X1223830D01*
G01X1455970Y373330D02*
X1465970Y383330D01*
X1477640Y388330D01*
X1490970Y390000D01*
X1507640Y386670D01*
X1519310Y378330D01*
X1522640Y368330D01*
X1520970Y358330D01*
X1514310Y350000D01*
X1480970Y333330D01*
X1465970Y321670D01*
X1455970Y305000D01*
X1452640Y290000D01*
X1522640D01*
G01X1602880Y390000D02*
X1589540Y386670D01*
X1579550Y378330D01*
X1572880Y368330D01*
X1567880Y355000D01*
X1566210Y340000D01*
X1567880Y325000D01*
X1572880Y311670D01*
X1579550Y301660D01*
X1589540Y293330D01*
X1602880Y290000D01*
X1616210Y293330D01*
X1626210Y301660D01*
X1632880Y311670D01*
X1637880Y325000D01*
X1639550Y340000D01*
X1637880Y355000D01*
X1632880Y368330D01*
X1626210Y378330D01*
X1616210Y386670D01*
X1602880Y390000D01*
G01X1686450Y373330D02*
X1696450Y383330D01*
X1708120Y388330D01*
X1721450Y390000D01*
X1738120Y386670D01*
X1749790Y378330D01*
X1753120Y368330D01*
X1751450Y358330D01*
X1744790Y350000D01*
X1711450Y333330D01*
X1696450Y321670D01*
X1686450Y305000D01*
X1683120Y290000D01*
X1753120D01*
G01X1853360D02*
Y390000D01*
X1791690Y318330D01*
X1875030D01*
G01X1926930Y323330D02*
X1970270D01*
G01X2032170Y373330D02*
X2042170Y383330D01*
X2053840Y388330D01*
X2067170Y390000D01*
X2083840Y386670D01*
X2095510Y378330D01*
X2098840Y368330D01*
X2097170Y358330D01*
X2090510Y350000D01*
X2057170Y333330D01*
X2042170Y321670D01*
X2032170Y305000D01*
X2028840Y290000D01*
X2098840D01*
G01X2179080Y390000D02*
X2165740Y386670D01*
X2155750Y378330D01*
X2149080Y368330D01*
X2144080Y355000D01*
X2142410Y340000D01*
X2144080Y325000D01*
X2149080Y311670D01*
X2155750Y301660D01*
X2165740Y293330D01*
X2179080Y290000D01*
X2192410Y293330D01*
X2202410Y301660D01*
X2209080Y311670D01*
X2214080Y325000D01*
X2215750Y340000D01*
X2214080Y355000D01*
X2209080Y368330D01*
X2202410Y378330D01*
X2192410Y386670D01*
X2179080Y390000D01*
G01X2262650Y373330D02*
X2272650Y383330D01*
X2284320Y388330D01*
X2297650Y390000D01*
X2314320Y386670D01*
X2325990Y378330D01*
X2329320Y368330D01*
X2327650Y358330D01*
X2320990Y350000D01*
X2287650Y333330D01*
X2272650Y321670D01*
X2262650Y305000D01*
X2259320Y290000D01*
X2329320D01*
G01X2372890Y305000D02*
X2382890Y296670D01*
X2394560Y291670D01*
X2409560Y290000D01*
X2424560Y293330D01*
X2436230Y300000D01*
X2444560Y311670D01*
X2446230Y325000D01*
X2442890Y338330D01*
X2434560Y346670D01*
X2422890Y353330D01*
X2411230Y355000D01*
X2399560Y353330D01*
X2384560Y346670D01*
X2389560Y390000D01*
X2434560D01*
G01X195000Y473330D02*
X208330Y465000D01*
X223330Y460000D01*
X236670D01*
X250000Y465000D01*
X260000Y473330D01*
X265000Y485000D01*
X261670Y496660D01*
X253330Y506670D01*
X238330Y513330D01*
X218330Y516670D01*
X206670Y523330D01*
X201670Y535000D01*
X205000Y546670D01*
X213330Y555000D01*
X225000Y560000D01*
X236670D01*
X248330Y556670D01*
X258330Y548330D01*
G01X345240Y560000D02*
Y460000D01*
G01X321910Y526660D02*
X368570D01*
G01X435480Y505000D02*
X488810D01*
X483810Y516670D01*
X475480Y523330D01*
X463810Y526660D01*
X452150Y525000D01*
X442150Y520000D01*
X435480Y508330D01*
X432150Y498330D01*
Y488330D01*
X435480Y478330D01*
X443810Y468330D01*
X453810Y461670D01*
X465480Y460000D01*
X477150Y463330D01*
X488810Y473330D01*
G01X552390Y460000D02*
Y526660D01*
G01Y513330D02*
X560720Y520000D01*
X569050Y525000D01*
X580720Y526660D01*
X589050Y525000D01*
X599050Y520000D01*
G01X667630Y435000D02*
X679290Y428330D01*
X692630Y426670D01*
X704290Y428330D01*
X714290Y436670D01*
X720960Y448330D01*
Y526660D01*
G01Y513330D02*
X714290Y520000D01*
X704290Y525000D01*
X692630Y526660D01*
X679290Y523330D01*
X670960Y516670D01*
X664290Y505000D01*
X660960Y493330D01*
X662630Y483330D01*
X669290Y471660D01*
X679290Y463330D01*
X692630Y460000D01*
X702630Y461670D01*
X714290Y468330D01*
X720960Y475000D01*
G01X836200Y460000D02*
Y526660D01*
G01Y515000D02*
X829530Y521670D01*
X819530Y525000D01*
X807870Y526660D01*
X796200Y523330D01*
X786200Y516670D01*
X779530Y506670D01*
X776200Y493330D01*
X779530Y480000D01*
X786200Y470000D01*
X796200Y463330D01*
X807870Y460000D01*
X819530Y461670D01*
X829530Y466670D01*
X836200Y473330D01*
G01X898110Y460000D02*
Y526660D01*
G01Y513330D02*
X906440Y520000D01*
X914770Y525000D01*
X926440Y526660D01*
X934770Y525000D01*
X944770Y520000D01*
G01X1011680Y505000D02*
X1065010D01*
X1060010Y516670D01*
X1051680Y523330D01*
X1040010Y526660D01*
X1028350Y525000D01*
X1018350Y520000D01*
X1011680Y508330D01*
X1008350Y498330D01*
Y488330D01*
X1011680Y478330D01*
X1020010Y468330D01*
X1030010Y461670D01*
X1041680Y460000D01*
X1053350Y463330D01*
X1065010Y473330D01*
G01X1151920Y460000D02*
Y560000D01*
G01X1415730Y460000D02*
X1349070D01*
Y560000D01*
X1415730D01*
G01X1389070Y511670D02*
X1349070D01*
G01X1497640Y460000D02*
Y560000D01*
G01X1612880Y526660D02*
Y460000D01*
G01Y553330D02*
X1609550Y555000D01*
Y558330D01*
X1612880Y560000D01*
X1616210Y558330D01*
Y555000D01*
X1612880Y553330D01*
G01X1703120Y471660D02*
X1711450Y465000D01*
X1723120Y460000D01*
X1733120D01*
X1743120Y463330D01*
X1749790Y468330D01*
X1753120Y475000D01*
X1751450Y485000D01*
X1744790Y490000D01*
X1714780Y500000D01*
X1708120Y511670D01*
X1711450Y520000D01*
X1718120Y525000D01*
X1728120Y526660D01*
X1738120Y525000D01*
X1748120Y520000D01*
G01X1873360Y460000D02*
Y526660D01*
G01Y515000D02*
X1866690Y521670D01*
X1856690Y525000D01*
X1845030Y526660D01*
X1833360Y523330D01*
X1823360Y516670D01*
X1816690Y506670D01*
X1813360Y493330D01*
X1816690Y480000D01*
X1823360Y470000D01*
X1833360Y463330D01*
X1845030Y460000D01*
X1856690Y461670D01*
X1866690Y466670D01*
X1873360Y473330D01*
G01X1928600Y460000D02*
Y560000D01*
G01Y510000D02*
X1936930Y520000D01*
X1946930Y525000D01*
X1956930Y526660D01*
X1971930Y523330D01*
X1981930Y516670D01*
X1988600Y505000D01*
Y491670D01*
X1985270Y478330D01*
X1978600Y468330D01*
X1966930Y461670D01*
X1956930Y460000D01*
X1946930Y461670D01*
X1936930Y466670D01*
X1928600Y475000D01*
G01X2048840Y505000D02*
X2102170D01*
X2097170Y516670D01*
X2088840Y523330D01*
X2077170Y526660D01*
X2065510Y525000D01*
X2055510Y520000D01*
X2048840Y508330D01*
X2045510Y498330D01*
Y488330D01*
X2048840Y478330D01*
X2057170Y468330D01*
X2067170Y461670D01*
X2078840Y460000D01*
X2090510Y463330D01*
X2102170Y473330D01*
G01X2189080Y560000D02*
Y460000D01*
G01X2165750Y526660D02*
X2212410D01*
G01X2334320Y460000D02*
Y526660D01*
G01Y515000D02*
X2327650Y521670D01*
X2317650Y525000D01*
X2305990Y526660D01*
X2294320Y523330D01*
X2284320Y516670D01*
X2277650Y506670D01*
X2274320Y493330D01*
X2277650Y480000D01*
X2284320Y470000D01*
X2294320Y463330D01*
X2305990Y460000D01*
X2317650Y461670D01*
X2327650Y466670D01*
X2334320Y473330D01*
G01X2397890Y493330D02*
X2441230D01*
G01X2568130Y460000D02*
X2501470D01*
Y560000D01*
X2568130D01*
G01X2541470Y511670D02*
X2501470D01*
G01X2650040Y460000D02*
Y560000D01*
G01X2740280Y505000D02*
X2793610D01*
X2788610Y516670D01*
X2780280Y523330D01*
X2768610Y526660D01*
X2756950Y525000D01*
X2746950Y520000D01*
X2740280Y508330D01*
X2736950Y498330D01*
Y488330D01*
X2740280Y478330D01*
X2748610Y468330D01*
X2758610Y461670D01*
X2770280Y460000D01*
X2781950Y463330D01*
X2793610Y473330D01*
G01X2852190Y460000D02*
Y526660D01*
G01Y510000D02*
X2858850Y518330D01*
X2868850Y525000D01*
X2882190Y526660D01*
X2893850Y525000D01*
X2903850Y518330D01*
X2908850Y506670D01*
Y460000D01*
G01X3025760D02*
Y526660D01*
G01Y515000D02*
X3019090Y521670D01*
X3009090Y525000D01*
X2997430Y526660D01*
X2985760Y523330D01*
X2975760Y516670D01*
X2969090Y506670D01*
X2965760Y493330D01*
X2969090Y480000D01*
X2975760Y470000D01*
X2985760Y463330D01*
X2997430Y460000D01*
X3009090Y461670D01*
X3019090Y466670D01*
X3025760Y473330D01*
G01X250000Y1836670D02*
X150000D01*
Y1878330D01*
X155000Y1891670D01*
X161670Y1900000D01*
X175000Y1903330D01*
X188330Y1900000D01*
X196670Y1890000D01*
X201670Y1878330D01*
Y1836670D01*
G01Y1878330D02*
X250000Y1903330D01*
G01X230000Y1948570D02*
X241670Y1958570D01*
X248330Y1971900D01*
X250000Y1986910D01*
X248330Y2000240D01*
X240000Y2013570D01*
X230000Y2021910D01*
X220000Y2023570D01*
X208340Y2020240D01*
X200000Y2008570D01*
X196670Y1996910D01*
Y1981910D01*
G01Y1996910D02*
X191670Y2006910D01*
X183340Y2015240D01*
X173330Y2018570D01*
X163330Y2015240D01*
X155000Y2006910D01*
X150000Y1991910D01*
X151670Y1976910D01*
X158330Y1961910D01*
G01X150000Y2100480D02*
X153330Y2087140D01*
X161670Y2077150D01*
X171670Y2070480D01*
X185000Y2065480D01*
X200000Y2063810D01*
X215000Y2065480D01*
X228330Y2070480D01*
X238340Y2077150D01*
X246670Y2087140D01*
X250000Y2100480D01*
X246670Y2113810D01*
X238340Y2123810D01*
X228330Y2130480D01*
X215000Y2135480D01*
X200000Y2137150D01*
X185000Y2135480D01*
X171670Y2130480D01*
X161670Y2123810D01*
X153330Y2113810D01*
X150000Y2100480D01*
G01X276670Y3800000D02*
X285000Y3790000D01*
X295000Y3783330D01*
X306670Y3780000D01*
X320000Y3783330D01*
X330000Y3790000D01*
X340000Y3800000D01*
X343330Y3813330D01*
Y3880000D01*
G01X425240Y3780000D02*
Y3880000D01*
X405240Y3860000D01*
G01Y3780000D02*
X445240D01*
G01X366670Y1450000D02*
Y1550000D01*
X408330D01*
X421670Y1545000D01*
X430000Y1538330D01*
X433330Y1525000D01*
X430000Y1511670D01*
X420000Y1503330D01*
X408330Y1498330D01*
X366670D01*
G01X408330D02*
X433330Y1450000D01*
G01X515240D02*
X526910Y1451670D01*
X540240Y1456670D01*
X548570Y1465000D01*
X551910Y1476670D01*
X548570Y1488330D01*
X538570Y1498330D01*
X523570Y1503330D01*
X506910D01*
X496910Y1506670D01*
X488570Y1515000D01*
X485240Y1526670D01*
X490240Y1538330D01*
X501900Y1546670D01*
X515240Y1550000D01*
X528570Y1546670D01*
X540240Y1538330D01*
X545240Y1526670D01*
X541910Y1515000D01*
X533570Y1506670D01*
X523570Y1503330D01*
X506910D01*
X491910Y1498330D01*
X481910Y1488330D01*
X478570Y1476670D01*
X481910Y1465000D01*
X490240Y1456670D01*
X503570Y1451670D01*
X515240Y1450000D01*
G01X770000Y1900000D02*
X756660Y1901670D01*
X745000Y1908330D01*
X735000Y1918330D01*
X728330Y1930000D01*
X725000Y1943330D01*
Y1956670D01*
X728330Y1970000D01*
X735000Y1981670D01*
X745000Y1991670D01*
X756660Y1998330D01*
X770000Y2000000D01*
X783330Y1998330D01*
X795000Y1991670D01*
X805000Y1981670D01*
X811670Y1970000D01*
X815000Y1956670D01*
Y1943330D01*
X811670Y1930000D01*
X805000Y1918330D01*
X795000Y1908330D01*
X783330Y1901670D01*
X770000Y1900000D01*
G01X783330Y1926670D02*
X803330Y1900000D01*
G01X848570Y1915000D02*
X858570Y1906670D01*
X870240Y1901670D01*
X885240Y1900000D01*
X900240Y1903330D01*
X911910Y1910000D01*
X920240Y1921670D01*
X921910Y1935000D01*
X918570Y1948330D01*
X910240Y1956670D01*
X898570Y1963330D01*
X886910Y1965000D01*
X875240Y1963330D01*
X860240Y1956670D01*
X865240Y2000000D01*
X910240D01*
G01X660000Y2420000D02*
X646660Y2421670D01*
X635000Y2428330D01*
X625000Y2438330D01*
X618330Y2450000D01*
X615000Y2463330D01*
Y2476670D01*
X618330Y2490000D01*
X625000Y2501670D01*
X635000Y2511670D01*
X646660Y2518330D01*
X660000Y2520000D01*
X673330Y2518330D01*
X685000Y2511670D01*
X695000Y2501670D01*
X701670Y2490000D01*
X705000Y2476670D01*
Y2463330D01*
X701670Y2450000D01*
X695000Y2438330D01*
X685000Y2428330D01*
X673330Y2421670D01*
X660000Y2420000D01*
G01X673330Y2446670D02*
X693330Y2420000D01*
G01X743570Y2503330D02*
X753570Y2513330D01*
X765240Y2518330D01*
X778570Y2520000D01*
X795240Y2516670D01*
X806910Y2508330D01*
X810240Y2498330D01*
X808570Y2488330D01*
X801910Y2480000D01*
X768570Y2463330D01*
X753570Y2451670D01*
X743570Y2435000D01*
X740240Y2420000D01*
X810240D01*
G01X910480D02*
Y2520000D01*
X848810Y2448330D01*
X932150D01*
G01X770000Y2666670D02*
X670000D01*
Y2708330D01*
X675000Y2721670D01*
X681670Y2730000D01*
X695000Y2733330D01*
X708330Y2730000D01*
X716670Y2720000D01*
X721670Y2708330D01*
Y2666670D01*
G01Y2708330D02*
X770000Y2733330D01*
G01X686670Y2783570D02*
X676670Y2793570D01*
X671670Y2805240D01*
X670000Y2818570D01*
X673330Y2835240D01*
X681670Y2846910D01*
X691670Y2850240D01*
X701670Y2848570D01*
X710000Y2841910D01*
X726670Y2808570D01*
X738330Y2793570D01*
X755000Y2783570D01*
X770000Y2780240D01*
Y2850240D01*
G01X758340Y2902150D02*
X766670Y2913810D01*
X770000Y2927150D01*
X766670Y2940480D01*
X756670Y2952150D01*
X741670Y2960480D01*
X726670Y2963810D01*
X708330D01*
X693330Y2960480D01*
X680000Y2952150D01*
X673330Y2942150D01*
X670000Y2930480D01*
X673330Y2917140D01*
X680000Y2907150D01*
X690000Y2900480D01*
X703340Y2897150D01*
X715000Y2900480D01*
X726670Y2908810D01*
X733340Y2918810D01*
X735000Y2930480D01*
X731670Y2943810D01*
X723330Y2953810D01*
X708330Y2963810D01*
G01X1286670Y1090000D02*
Y1190000D01*
X1328330D01*
X1341670Y1185000D01*
X1350000Y1178330D01*
X1353330Y1165000D01*
X1350000Y1151670D01*
X1340000Y1143330D01*
X1328330Y1138330D01*
X1286670D01*
G01X1328330D02*
X1353330Y1090000D01*
G01X1455240D02*
Y1190000D01*
X1393570Y1118330D01*
X1476910D01*
G01X1550480Y1190000D02*
X1537140Y1186670D01*
X1527150Y1178330D01*
X1520480Y1168330D01*
X1515480Y1155000D01*
X1513810Y1140000D01*
X1515480Y1125000D01*
X1520480Y1111670D01*
X1527150Y1101660D01*
X1537140Y1093330D01*
X1550480Y1090000D01*
X1563810Y1093330D01*
X1573810Y1101660D01*
X1580480Y1111670D01*
X1585480Y1125000D01*
X1587150Y1140000D01*
X1585480Y1155000D01*
X1580480Y1168330D01*
X1573810Y1178330D01*
X1563810Y1186670D01*
X1550480Y1190000D01*
G01X1880000Y1126670D02*
X1780000D01*
Y1168330D01*
X1785000Y1181670D01*
X1791670Y1190000D01*
X1805000Y1193330D01*
X1818330Y1190000D01*
X1826670Y1180000D01*
X1831670Y1168330D01*
Y1126670D01*
G01Y1168330D02*
X1880000Y1193330D01*
G01Y1295240D02*
X1780000D01*
X1851670Y1233570D01*
Y1316910D01*
G01X1880000Y1390480D02*
X1780000D01*
X1800000Y1370480D01*
G01X1880000D02*
Y1410480D01*
G01X1343330Y1640000D02*
Y1740000D01*
X1376670D01*
X1390000Y1735000D01*
X1400000Y1728330D01*
X1408330Y1718330D01*
X1415000Y1706660D01*
X1416670Y1690000D01*
X1415000Y1673330D01*
X1408330Y1661670D01*
X1400000Y1651660D01*
X1390000Y1645000D01*
X1376670Y1640000D01*
X1343330D01*
G01X1458570Y1655000D02*
X1468570Y1646670D01*
X1480240Y1641670D01*
X1495240Y1640000D01*
X1510240Y1643330D01*
X1521910Y1650000D01*
X1530240Y1661670D01*
X1531910Y1675000D01*
X1528570Y1688330D01*
X1520240Y1696670D01*
X1508570Y1703330D01*
X1496910Y1705000D01*
X1485240Y1703330D01*
X1470240Y1696670D01*
X1475240Y1740000D01*
X1520240D01*
G01X1380000Y2280000D02*
X1366660Y2281670D01*
X1355000Y2288330D01*
X1345000Y2298330D01*
X1338330Y2310000D01*
X1335000Y2323330D01*
Y2336670D01*
X1338330Y2350000D01*
X1345000Y2361670D01*
X1355000Y2371670D01*
X1366660Y2378330D01*
X1380000Y2380000D01*
X1393330Y2378330D01*
X1405000Y2371670D01*
X1415000Y2361670D01*
X1421670Y2350000D01*
X1425000Y2336670D01*
Y2323330D01*
X1421670Y2310000D01*
X1415000Y2298330D01*
X1405000Y2288330D01*
X1393330Y2281670D01*
X1380000Y2280000D01*
G01X1393330Y2306670D02*
X1413330Y2280000D01*
G01X1463570Y2363330D02*
X1473570Y2373330D01*
X1485240Y2378330D01*
X1498570Y2380000D01*
X1515240Y2376670D01*
X1526910Y2368330D01*
X1530240Y2358330D01*
X1528570Y2348330D01*
X1521910Y2340000D01*
X1488570Y2323330D01*
X1473570Y2311670D01*
X1463570Y2295000D01*
X1460240Y2280000D01*
X1530240D01*
G01X1370000Y2880000D02*
X1356660Y2881670D01*
X1345000Y2888330D01*
X1335000Y2898330D01*
X1328330Y2910000D01*
X1325000Y2923330D01*
Y2936670D01*
X1328330Y2950000D01*
X1335000Y2961670D01*
X1345000Y2971670D01*
X1356660Y2978330D01*
X1370000Y2980000D01*
X1383330Y2978330D01*
X1395000Y2971670D01*
X1405000Y2961670D01*
X1411670Y2950000D01*
X1415000Y2936670D01*
Y2923330D01*
X1411670Y2910000D01*
X1405000Y2898330D01*
X1395000Y2888330D01*
X1383330Y2881670D01*
X1370000Y2880000D01*
G01X1383330Y2906670D02*
X1403330Y2880000D01*
G01X1485240D02*
Y2980000D01*
X1465240Y2960000D01*
G01Y2880000D02*
X1505240D01*
G01X1572150Y2891660D02*
X1583810Y2883330D01*
X1597150Y2880000D01*
X1610480Y2883330D01*
X1622150Y2893330D01*
X1630480Y2908330D01*
X1633810Y2923330D01*
Y2941670D01*
X1630480Y2956670D01*
X1622150Y2970000D01*
X1612150Y2976670D01*
X1600480Y2980000D01*
X1587140Y2976670D01*
X1577150Y2970000D01*
X1570480Y2960000D01*
X1567150Y2946660D01*
X1570480Y2935000D01*
X1578810Y2923330D01*
X1588810Y2916660D01*
X1600480Y2915000D01*
X1613810Y2918330D01*
X1623810Y2926670D01*
X1633810Y2941670D01*
G01X1620000Y3546670D02*
X1520000D01*
Y3588330D01*
X1525000Y3601670D01*
X1531670Y3610000D01*
X1545000Y3613330D01*
X1558330Y3610000D01*
X1566670Y3600000D01*
X1571670Y3588330D01*
Y3546670D01*
G01Y3588330D02*
X1620000Y3613330D01*
G01X1536670Y3663570D02*
X1526670Y3673570D01*
X1521670Y3685240D01*
X1520000Y3698570D01*
X1523330Y3715240D01*
X1531670Y3726910D01*
X1541670Y3730240D01*
X1551670Y3728570D01*
X1560000Y3721910D01*
X1576670Y3688570D01*
X1588330Y3673570D01*
X1605000Y3663570D01*
X1620000Y3660240D01*
Y3730240D01*
G01X1230000Y3440000D02*
X1216660Y3441670D01*
X1205000Y3448330D01*
X1195000Y3458330D01*
X1188330Y3470000D01*
X1185000Y3483330D01*
Y3496670D01*
X1188330Y3510000D01*
X1195000Y3521670D01*
X1205000Y3531670D01*
X1216660Y3538330D01*
X1230000Y3540000D01*
X1243330Y3538330D01*
X1255000Y3531670D01*
X1265000Y3521670D01*
X1271670Y3510000D01*
X1275000Y3496670D01*
Y3483330D01*
X1271670Y3470000D01*
X1265000Y3458330D01*
X1255000Y3448330D01*
X1243330Y3441670D01*
X1230000Y3440000D01*
G01X1243330Y3466670D02*
X1263330Y3440000D01*
G01X1313570Y3523330D02*
X1323570Y3533330D01*
X1335240Y3538330D01*
X1348570Y3540000D01*
X1365240Y3536670D01*
X1376910Y3528330D01*
X1380240Y3518330D01*
X1378570Y3508330D01*
X1371910Y3500000D01*
X1338570Y3483330D01*
X1323570Y3471670D01*
X1313570Y3455000D01*
X1310240Y3440000D01*
X1380240D01*
G01X1428810Y3523330D02*
X1438810Y3533330D01*
X1450480Y3538330D01*
X1463810Y3540000D01*
X1480480Y3536670D01*
X1492150Y3528330D01*
X1495480Y3518330D01*
X1493810Y3508330D01*
X1487150Y3500000D01*
X1453810Y3483330D01*
X1438810Y3471670D01*
X1428810Y3455000D01*
X1425480Y3440000D01*
X1495480D01*
G01X2350000Y1116670D02*
X2250000D01*
Y1158330D01*
X2255000Y1171670D01*
X2261670Y1180000D01*
X2275000Y1183330D01*
X2288330Y1180000D01*
X2296670Y1170000D01*
X2301670Y1158330D01*
Y1116670D01*
G01Y1158330D02*
X2350000Y1183330D01*
G01X2250000Y1231910D02*
X2350000D01*
Y1298570D01*
G01Y1380480D02*
X2348330Y1367140D01*
X2341670Y1355480D01*
X2331670Y1345480D01*
X2320000Y1338810D01*
X2306670Y1335480D01*
X2293330D01*
X2280000Y1338810D01*
X2268330Y1345480D01*
X2258330Y1355480D01*
X2251670Y1367140D01*
X2250000Y1380480D01*
X2251670Y1393810D01*
X2258330Y1405480D01*
X2268330Y1415480D01*
X2280000Y1422150D01*
X2293330Y1425480D01*
X2306670D01*
X2320000Y1422150D01*
X2331670Y1415480D01*
X2341670Y1405480D01*
X2348330Y1393810D01*
X2350000Y1380480D01*
G01Y1454050D02*
X2250000Y1495720D01*
X2350000Y1537390D01*
G01X2315000Y1522390D02*
Y1469050D01*
G01X2350000Y1574290D02*
X2250000D01*
Y1607630D01*
X2255000Y1620960D01*
X2261670Y1630960D01*
X2271670Y1639290D01*
X2283340Y1645960D01*
X2300000Y1647630D01*
X2316670Y1645960D01*
X2328330Y1639290D01*
X2338340Y1630960D01*
X2345000Y1620960D01*
X2350000Y1607630D01*
Y1574290D01*
G01X2250000Y2180000D02*
X2236660Y2181670D01*
X2225000Y2188330D01*
X2215000Y2198330D01*
X2208330Y2210000D01*
X2205000Y2223330D01*
Y2236670D01*
X2208330Y2250000D01*
X2215000Y2261670D01*
X2225000Y2271670D01*
X2236660Y2278330D01*
X2250000Y2280000D01*
X2263330Y2278330D01*
X2275000Y2271670D01*
X2285000Y2261670D01*
X2291670Y2250000D01*
X2295000Y2236670D01*
Y2223330D01*
X2291670Y2210000D01*
X2285000Y2198330D01*
X2275000Y2188330D01*
X2263330Y2181670D01*
X2250000Y2180000D01*
G01X2263330Y2206670D02*
X2283330Y2180000D01*
G01X2328570Y2200000D02*
X2338570Y2188330D01*
X2351900Y2181670D01*
X2366910Y2180000D01*
X2380240Y2181670D01*
X2393570Y2190000D01*
X2401910Y2200000D01*
X2403570Y2210000D01*
X2400240Y2221660D01*
X2388570Y2230000D01*
X2376910Y2233330D01*
X2361910D01*
G01X2376910D02*
X2386910Y2238330D01*
X2395240Y2246660D01*
X2398570Y2256670D01*
X2395240Y2266670D01*
X2386910Y2275000D01*
X2371910Y2280000D01*
X2356910Y2278330D01*
X2341910Y2271670D01*
G01X2232680Y2992100D02*
X2219340Y2993770D01*
X2207680Y3000430D01*
X2197680Y3010430D01*
X2191010Y3022100D01*
X2187680Y3035430D01*
Y3048770D01*
X2191010Y3062100D01*
X2197680Y3073770D01*
X2207680Y3083770D01*
X2219340Y3090430D01*
X2232680Y3092100D01*
X2246010Y3090430D01*
X2257680Y3083770D01*
X2267680Y3073770D01*
X2274350Y3062100D01*
X2277680Y3048770D01*
Y3035430D01*
X2274350Y3022100D01*
X2267680Y3010430D01*
X2257680Y3000430D01*
X2246010Y2993770D01*
X2232680Y2992100D01*
G01X2246010Y3018770D02*
X2266010Y2992100D01*
G01X2367920D02*
Y3092100D01*
X2306250Y3020430D01*
X2389590D01*
G01X1890000Y2610000D02*
X1876660Y2611670D01*
X1865000Y2618330D01*
X1855000Y2628330D01*
X1848330Y2640000D01*
X1845000Y2653330D01*
Y2666670D01*
X1848330Y2680000D01*
X1855000Y2691670D01*
X1865000Y2701670D01*
X1876660Y2708330D01*
X1890000Y2710000D01*
X1903330Y2708330D01*
X1915000Y2701670D01*
X1925000Y2691670D01*
X1931670Y2680000D01*
X1935000Y2666670D01*
Y2653330D01*
X1931670Y2640000D01*
X1925000Y2628330D01*
X1915000Y2618330D01*
X1903330Y2611670D01*
X1890000Y2610000D01*
G01X1903330Y2636670D02*
X1923330Y2610000D01*
G01X2005240D02*
Y2710000D01*
X1985240Y2690000D01*
G01Y2610000D02*
X2025240D01*
G01X2080000Y3496670D02*
X1980000D01*
Y3538330D01*
X1985000Y3551670D01*
X1991670Y3560000D01*
X2005000Y3563330D01*
X2018330Y3560000D01*
X2026670Y3550000D01*
X2031670Y3538330D01*
Y3496670D01*
G01Y3538330D02*
X2080000Y3563330D01*
G01Y3645240D02*
X1980000D01*
X2000000Y3625240D01*
G01X2080000D02*
Y3665240D01*
G01X1980000Y3760480D02*
X1983330Y3747140D01*
X1991670Y3737150D01*
X2001670Y3730480D01*
X2015000Y3725480D01*
X2030000Y3723810D01*
X2045000Y3725480D01*
X2058330Y3730480D01*
X2068340Y3737150D01*
X2076670Y3747140D01*
X2080000Y3760480D01*
X2076670Y3773810D01*
X2068340Y3783810D01*
X2058330Y3790480D01*
X2045000Y3795480D01*
X2030000Y3797150D01*
X2015000Y3795480D01*
X2001670Y3790480D01*
X1991670Y3783810D01*
X1983330Y3773810D01*
X1980000Y3760480D01*
G01X2570000Y3506670D02*
X2470000D01*
Y3548330D01*
X2475000Y3561670D01*
X2481670Y3570000D01*
X2495000Y3573330D01*
X2508330Y3570000D01*
X2516670Y3560000D01*
X2521670Y3548330D01*
Y3506670D01*
G01Y3548330D02*
X2570000Y3573330D01*
G01Y3655240D02*
X2470000D01*
X2490000Y3635240D01*
G01X2570000D02*
Y3675240D01*
G01Y3770480D02*
X2470000D01*
X2490000Y3750480D01*
G01X2570000D02*
Y3790480D01*
G01X3040000Y646670D02*
X2940000D01*
Y688330D01*
X2945000Y701670D01*
X2951670Y710000D01*
X2965000Y713330D01*
X2978330Y710000D01*
X2986670Y700000D01*
X2991670Y688330D01*
Y646670D01*
G01Y688330D02*
X3040000Y713330D01*
G01X2940000Y761910D02*
X3040000D01*
Y828570D01*
G01Y910480D02*
X3038330Y897140D01*
X3031670Y885480D01*
X3021670Y875480D01*
X3010000Y868810D01*
X2996670Y865480D01*
X2983330D01*
X2970000Y868810D01*
X2958330Y875480D01*
X2948330Y885480D01*
X2941670Y897140D01*
X2940000Y910480D01*
X2941670Y923810D01*
X2948330Y935480D01*
X2958330Y945480D01*
X2970000Y952150D01*
X2983330Y955480D01*
X2996670D01*
X3010000Y952150D01*
X3021670Y945480D01*
X3031670Y935480D01*
X3038330Y923810D01*
X3040000Y910480D01*
G01Y984050D02*
X2940000Y1025720D01*
X3040000Y1067390D01*
G01X3005000Y1052390D02*
Y999050D01*
G01X3040000Y1104290D02*
X2940000D01*
Y1137630D01*
X2945000Y1150960D01*
X2951670Y1160960D01*
X2961670Y1169290D01*
X2973340Y1175960D01*
X2990000Y1177630D01*
X3006670Y1175960D01*
X3018330Y1169290D01*
X3028340Y1160960D01*
X3035000Y1150960D01*
X3040000Y1137630D01*
Y1104290D01*
G01Y1256200D02*
X2940000D01*
X2960000Y1236200D01*
G01X3040000D02*
Y1276200D01*
G01X2946670Y1670000D02*
Y1770000D01*
X2988330D01*
X3001670Y1765000D01*
X3010000Y1758330D01*
X3013330Y1745000D01*
X3010000Y1731670D01*
X3000000Y1723330D01*
X2988330Y1718330D01*
X2946670D01*
G01X2988330D02*
X3013330Y1670000D01*
G01X3131910Y1761670D02*
X3121910Y1766670D01*
X3110240Y1770000D01*
X3096910D01*
X3081900Y1765000D01*
X3070240Y1756670D01*
X3061910Y1746670D01*
X3055240Y1730000D01*
X3053570Y1715000D01*
X3056910Y1700000D01*
X3061910Y1690000D01*
X3071910Y1680000D01*
X3083570Y1673330D01*
X3095240Y1670000D01*
X3106910D01*
X3118570Y1673330D01*
X3128570Y1678330D01*
X3136910Y1685000D01*
G01X3230480Y1670000D02*
Y1770000D01*
X3168810Y1698330D01*
X3252150D01*
G01X3000000Y2400000D02*
X2986660Y2401670D01*
X2975000Y2408330D01*
X2965000Y2418330D01*
X2958330Y2430000D01*
X2955000Y2443330D01*
Y2456670D01*
X2958330Y2470000D01*
X2965000Y2481670D01*
X2975000Y2491670D01*
X2986660Y2498330D01*
X3000000Y2500000D01*
X3013330Y2498330D01*
X3025000Y2491670D01*
X3035000Y2481670D01*
X3041670Y2470000D01*
X3045000Y2456670D01*
Y2443330D01*
X3041670Y2430000D01*
X3035000Y2418330D01*
X3025000Y2408330D01*
X3013330Y2401670D01*
X3000000Y2400000D01*
G01X3013330Y2426670D02*
X3033330Y2400000D01*
G01X3078570Y2415000D02*
X3088570Y2406670D01*
X3100240Y2401670D01*
X3115240Y2400000D01*
X3130240Y2403330D01*
X3141910Y2410000D01*
X3150240Y2421670D01*
X3151910Y2435000D01*
X3148570Y2448330D01*
X3140240Y2456670D01*
X3128570Y2463330D01*
X3116910Y2465000D01*
X3105240Y2463330D01*
X3090240Y2456670D01*
X3095240Y2500000D01*
X3140240D01*
G01X3193810Y2415000D02*
X3203810Y2406670D01*
X3215480Y2401670D01*
X3230480Y2400000D01*
X3245480Y2403330D01*
X3257150Y2410000D01*
X3265480Y2421670D01*
X3267150Y2435000D01*
X3263810Y2448330D01*
X3255480Y2456670D01*
X3243810Y2463330D01*
X3232150Y2465000D01*
X3220480Y2463330D01*
X3205480Y2456670D01*
X3210480Y2500000D01*
X3255480D01*
G01X3090000Y3200000D02*
X3088330Y3186660D01*
X3081670Y3175000D01*
X3071670Y3165000D01*
X3060000Y3158330D01*
X3046670Y3155000D01*
X3033330D01*
X3020000Y3158330D01*
X3008330Y3165000D01*
X2998330Y3175000D01*
X2991670Y3186660D01*
X2990000Y3200000D01*
X2991670Y3213330D01*
X2998330Y3225000D01*
X3008330Y3235000D01*
X3020000Y3241670D01*
X3033330Y3245000D01*
X3046670D01*
X3060000Y3241670D01*
X3071670Y3235000D01*
X3081670Y3225000D01*
X3088330Y3213330D01*
X3090000Y3200000D01*
G01X3063330Y3213330D02*
X3090000Y3233330D01*
G01Y3348570D02*
Y3281910D01*
X2990000D01*
Y3348570D01*
G01X3038330Y3321910D02*
Y3281910D01*
G01X3076670Y3395480D02*
X3085000Y3408810D01*
X3090000Y3423810D01*
Y3437150D01*
X3085000Y3450480D01*
X3076670Y3460480D01*
X3065000Y3465480D01*
X3053340Y3462150D01*
X3043330Y3453810D01*
X3036670Y3438810D01*
X3033330Y3418810D01*
X3026670Y3407150D01*
X3015000Y3402150D01*
X3003330Y3405480D01*
X2995000Y3413810D01*
X2990000Y3425480D01*
Y3437150D01*
X2993330Y3448810D01*
X3001670Y3458810D01*
G01X3090000Y3512390D02*
X2990000D01*
Y3554050D01*
X2995000Y3567390D01*
X3001670Y3575720D01*
X3015000Y3579050D01*
X3028330Y3575720D01*
X3036670Y3565720D01*
X3041670Y3554050D01*
Y3512390D01*
G01Y3554050D02*
X3090000Y3579050D01*
G01X3006670Y3629290D02*
X2996670Y3639290D01*
X2991670Y3650960D01*
X2990000Y3664290D01*
X2993330Y3680960D01*
X3001670Y3692630D01*
X3011670Y3695960D01*
X3021670Y3694290D01*
X3030000Y3687630D01*
X3046670Y3654290D01*
X3058330Y3639290D01*
X3075000Y3629290D01*
X3090000Y3625960D01*
Y3695960D01*
G01X2660000Y2970000D02*
X2646660Y2971670D01*
X2635000Y2978330D01*
X2625000Y2988330D01*
X2618330Y3000000D01*
X2615000Y3013330D01*
Y3026670D01*
X2618330Y3040000D01*
X2625000Y3051670D01*
X2635000Y3061670D01*
X2646660Y3068330D01*
X2660000Y3070000D01*
X2673330Y3068330D01*
X2685000Y3061670D01*
X2695000Y3051670D01*
X2701670Y3040000D01*
X2705000Y3026670D01*
Y3013330D01*
X2701670Y3000000D01*
X2695000Y2988330D01*
X2685000Y2978330D01*
X2673330Y2971670D01*
X2660000Y2970000D01*
G01X2673330Y2996670D02*
X2693330Y2970000D01*
G01X2808570D02*
X2741910D01*
Y3070000D01*
X2808570D01*
G01X2781910Y3021670D02*
X2741910D01*
G01X2855480Y2983330D02*
X2868810Y2975000D01*
X2883810Y2970000D01*
X2897150D01*
X2910480Y2975000D01*
X2920480Y2983330D01*
X2925480Y2995000D01*
X2922150Y3006660D01*
X2913810Y3016670D01*
X2898810Y3023330D01*
X2878810Y3026670D01*
X2867150Y3033330D01*
X2862150Y3045000D01*
X2865480Y3056670D01*
X2873810Y3065000D01*
X2885480Y3070000D01*
X2897150D01*
X2908810Y3066670D01*
X2918810Y3058330D01*
G01X2972390Y2970000D02*
Y3070000D01*
X3014050D01*
X3027390Y3065000D01*
X3035720Y3058330D01*
X3039050Y3045000D01*
X3035720Y3031670D01*
X3025720Y3023330D01*
X3014050Y3018330D01*
X2972390D01*
G01X3014050D02*
X3039050Y2970000D01*
G01X3560000Y916670D02*
X3460000D01*
Y958330D01*
X3465000Y971670D01*
X3471670Y980000D01*
X3485000Y983330D01*
X3498330Y980000D01*
X3506670Y970000D01*
X3511670Y958330D01*
Y916670D01*
G01Y958330D02*
X3560000Y983330D01*
G01X3468330Y1101910D02*
X3463330Y1091910D01*
X3460000Y1080240D01*
Y1066910D01*
X3465000Y1051900D01*
X3473330Y1040240D01*
X3483330Y1031910D01*
X3500000Y1025240D01*
X3515000Y1023570D01*
X3530000Y1026910D01*
X3540000Y1031910D01*
X3550000Y1041910D01*
X3556670Y1053570D01*
X3560000Y1065240D01*
Y1076910D01*
X3556670Y1088570D01*
X3551670Y1098570D01*
X3545000Y1106910D01*
G01X3476670Y1148810D02*
X3466670Y1158810D01*
X3461670Y1170480D01*
X3460000Y1183810D01*
X3463330Y1200480D01*
X3471670Y1212150D01*
X3481670Y1215480D01*
X3491670Y1213810D01*
X3500000Y1207150D01*
X3516670Y1173810D01*
X3528330Y1158810D01*
X3545000Y1148810D01*
X3560000Y1145480D01*
Y1215480D01*
G01X3546670Y2370000D02*
X3555000Y2360000D01*
X3565000Y2353330D01*
X3576670Y2350000D01*
X3590000Y2353330D01*
X3600000Y2360000D01*
X3610000Y2370000D01*
X3613330Y2383330D01*
Y2450000D01*
G01X3663570Y2433330D02*
X3673570Y2443330D01*
X3685240Y2448330D01*
X3698570Y2450000D01*
X3715240Y2446670D01*
X3726910Y2438330D01*
X3730240Y2428330D01*
X3728570Y2418330D01*
X3721910Y2410000D01*
X3688570Y2393330D01*
X3673570Y2381670D01*
X3663570Y2365000D01*
X3660240Y2350000D01*
X3730240D01*
G54D12*
G01X250120Y1405250D02*
X656520D01*
G01Y1214750D02*
X250120D01*
G01D02*
Y1405250D01*
G01X169500Y3727870D02*
Y2851570D01*
G01D02*
X550500D01*
G01Y3727870D02*
X169500D01*
G01X294750Y1760120D02*
Y2166520D01*
G01X485250D02*
Y1760120D01*
G01D02*
X294750D01*
G01X656520Y1405250D02*
Y1214750D01*
G01X294750Y2166520D02*
X485250D01*
G01X550500Y2851570D02*
Y3727870D01*
G01X834750Y2590120D02*
Y2996520D01*
G01D02*
X1025250D01*
G01Y2590120D02*
X834750D01*
G01X1629880Y864750D02*
X1223480D01*
G01D02*
Y1055250D01*
G01X1629880D02*
Y864750D01*
G01X1223480Y1055250D02*
X1629880D01*
G01X1025250Y2996520D02*
Y2590120D01*
G01X1885250Y3433480D02*
X1694750D01*
G01D02*
Y3839880D01*
G01D02*
X1885250D01*
G01X1934750Y1110120D02*
Y1516520D01*
G01D02*
X2125250D01*
G01D02*
Y1110120D01*
G01D02*
X1934750D01*
G01X2585250Y1113480D02*
X2394750D01*
G01D02*
Y1519880D01*
G01D02*
X2585250D01*
G01X1885250Y3839880D02*
Y3433480D01*
G01X2305250Y3839880D02*
Y3433480D01*
G01D02*
X2114750D01*
G01D02*
Y3839880D01*
G01D02*
X2305250D01*
G01X3104750Y870120D02*
Y1276520D01*
G01X3295250D02*
Y870120D01*
G01D02*
X3104750D01*
G01X3289880Y1434750D02*
X2883480D01*
G01D02*
Y1625250D01*
G01D02*
X3289880D01*
G01D02*
Y1434750D01*
G01X2585250Y1519880D02*
Y1113480D01*
G01X3104750Y1276520D02*
X3295250D01*
G01X3803880Y2973200D02*
X3133320D01*
G01D02*
Y3760600D01*
G01X2805250Y3839880D02*
Y3433480D01*
G01D02*
X2614750D01*
G01D02*
Y3839880D01*
G01D02*
X2805250D01*
G01X3785250Y1269880D02*
Y863480D01*
G01D02*
X3594750D01*
G01D02*
Y1269880D01*
G01X3429500Y1422130D02*
X3810500D01*
G01D02*
Y2298430D01*
G01X3429500D02*
Y1422130D01*
G01X3594750Y1269880D02*
X3785250D01*
G01X3810500Y2298430D02*
X3429500D01*
G01X3803880Y3760600D02*
Y2973200D01*
M02*
