G04 ================== begin FILE IDENTIFICATION RECORD ==================*
G04 Layout Name:  C:/Users/eliza/AppData/Roaming/SPB_Data/unnamed.brd*
G04 Film Name:    TOP*
G04 File Format:  Gerber RS274X*
G04 File Origin:  Cadence Allegro 17.2-S025*
G04 Origin Date:  Sat Dec 14 10:02:13 2024*
G04 *
G04 Layer:  ETCH/TOP*
G04 Layer:  PIN/TOP*
G04 Layer:  VIA CLASS/TOP*
G04 *
G04 Offset:    (0.0000 0.0000)*
G04 Mirror:    No*
G04 Mode:      Positive*
G04 Rotation:  0*
G04 FullContactRelief:  No*
G04 UndefLineWidth:     0.0000*
G04 ================== end FILE IDENTIFICATION RECORD ====================*
%FSLAX25Y25*MOMM*%
%IR0*IPPOS*OFA0.00000B0.00000*MIA0B0*SFA1.00000B1.00000*%
%ADD15C,.8*%
%ADD14R,.9144X1.27*%
%ADD12R,1.27X.9144*%
%ADD13C,1.*%
%ADD11R,1.27X1.27*%
%ADD10R,3.048X1.9304*%
%ADD16R,1.4224X1.8288*%
%ADD17R,5.588X5.842*%
%ADD18C,.4*%
%ADD19C,.45*%
G75*
%LPD*%
G75*
G54D10*
X360000Y2990000D03*
Y3589440D03*
X3620000Y1560560D03*
Y2160000D03*
G54D11*
X560000Y1310000D03*
X346640D03*
X390000Y2070000D03*
Y1856640D03*
X930000Y2900000D03*
Y2686640D03*
X1320000Y960000D03*
X1533360D03*
X1790000Y3530000D03*
Y3743360D03*
X2030000Y1420000D03*
Y1206640D03*
X2490000Y1210000D03*
Y1423360D03*
X2210000Y3530000D03*
Y3743360D03*
X3200000Y966640D03*
X2980000Y1530000D03*
X3193360D03*
X3200000Y1180000D03*
X2710000Y3530000D03*
Y3743360D03*
X3690000Y960000D03*
Y1173360D03*
G54D12*
X965740Y1685860D03*
X760000Y1790000D03*
Y1581720D03*
X975740Y2235860D03*
X770000Y2340000D03*
Y2131720D03*
X1585740Y2065860D03*
X1380000Y2170000D03*
Y1961720D03*
X2124260Y2804140D03*
X2330000Y2700000D03*
Y2908280D03*
G54D13*
X950000Y3500000D03*
X3500000Y500000D03*
G54D14*
X1424140Y1515740D03*
X1320000Y1310000D03*
X1528280D03*
X1821720Y2480000D03*
X1360000Y2550000D03*
X1568280D03*
X1464140Y2755740D03*
X1335860Y3104260D03*
X1440000Y3310000D03*
X1231720D03*
X2200000Y1850000D03*
X2408280D03*
X2304140Y2055740D03*
X1925860Y2274260D03*
X2030000Y2480000D03*
X3094140Y2285740D03*
X2990000Y2080000D03*
X3198280D03*
X2814140Y2855740D03*
X2710000Y2650000D03*
X2918280D03*
G54D15*
X1185000Y1535000D03*
X1820000Y1580000D03*
X1230000Y2170000D03*
X1440000Y2930000D03*
X2030000Y910000D03*
X2330000Y2560000D03*
X2180000Y2360000D03*
X2020000Y1850000D03*
X3060000Y820000D03*
X3010000Y1330000D03*
X2790000Y2080000D03*
X3200000Y1890000D03*
X3516640Y1173360D03*
X3640000Y2500000D03*
G54D16*
X3240000Y2770000D03*
X3697200D03*
G54D17*
X3468600Y3506600D03*
G54D18*
G01X965740Y1685860D02*
X1660000D01*
G01X760000Y1581720D02*
X631720D01*
X560000Y1510000D01*
Y1310000D01*
G01X760000Y1790000D02*
Y1930000D01*
X790000Y1960000D01*
X935740D01*
X975740Y2000000D01*
Y2235860D01*
G01X930000Y2686640D02*
Y2500000D01*
G01X770000Y2340000D02*
X673800D01*
X630000Y2383800D01*
Y2450000D01*
X680000Y2500000D01*
X930000D01*
G01X975740Y2235860D02*
Y2454260D01*
X930000Y2500000D01*
G01X770000Y2131720D02*
X673800D01*
X662080Y2120000D01*
X600000D01*
X550000Y2070000D01*
X390000D01*
G01X1335860Y3104260D02*
X1004260D01*
X930000Y3030000D01*
Y2900000D01*
G01X1820000Y1420000D02*
X1780000D01*
X1740000Y1380000D01*
Y1040000D01*
X1660000Y960000D01*
X1533360D01*
G01X1380000Y1961720D02*
Y1840000D01*
X1420000Y1800000D01*
X1545860D01*
X1660000Y1685860D01*
G01X2408280Y1850000D02*
Y1725860D01*
X2368280Y1685860D01*
X1660000D01*
G01X1424140Y1515740D02*
X1204260D01*
X1185000Y1535000D01*
G01X1568280Y2550000D02*
X1650000D01*
X1680000Y2580000D01*
Y2776070D01*
X1790000Y2886070D01*
Y3530000D01*
G01X1335860Y3104260D02*
Y3008060D01*
X1340000Y3003920D01*
Y2850000D01*
X1290000Y2800000D01*
X1240000D01*
X1200000Y2760000D01*
Y2610000D01*
X1260000Y2550000D01*
X1360000D01*
G01X1380000Y2170000D02*
X1230000D01*
G01X1585740Y2065860D02*
X1895280D01*
X1925860Y2096440D01*
Y2105860D01*
G01X1440000Y3310000D02*
X1610000D01*
X1680000Y3240000D01*
Y3134260D01*
X1650000Y3104260D01*
X1335860D01*
G01X1464140Y2755740D02*
Y2851940D01*
X1460000Y2856080D01*
Y2910000D01*
X1440000Y2930000D01*
G01X3200000Y1180000D02*
X3103800D01*
X3093800Y1170000D01*
X2860000D01*
X2810000Y1220000D01*
Y1360000D01*
X2746640Y1423360D01*
X2490000D01*
G01X2030000Y1420000D02*
X1820000D01*
G01Y1580000D02*
Y1420000D01*
G01X2124260Y2804140D02*
Y2614850D01*
X2308570Y2430540D01*
Y2380000D01*
G01D02*
X2490000D01*
X2515000Y2405000D01*
G01X3094140Y2285740D02*
X2634260D01*
X2515000Y2405000D01*
G01X2710000Y2650000D02*
X2610000D01*
X2550000Y2590000D01*
Y2440000D01*
X2515000Y2405000D01*
G01X2304140Y2055740D02*
Y2347010D01*
X2308570Y2351440D01*
Y2380000D01*
G01X1821720Y2480000D02*
Y2791720D01*
X1970000Y2940000D01*
Y3490000D01*
X2010000Y3530000D01*
X2210000D01*
G01X2030000Y2480000D02*
X2123180D01*
X2180000Y2423180D01*
Y2360000D01*
G01X1925860Y2105860D02*
Y2274260D01*
G01X2180000Y2360000D02*
Y2240000D01*
X2045860Y2105860D01*
X1925860D01*
G01X2200000Y1850000D02*
X2020000D01*
G01X2330000Y2908280D02*
X2508280D01*
X2710000Y3110000D01*
Y3530000D01*
G01X2330000Y2700000D02*
Y2560000D01*
G01X3060000Y820000D02*
X3104680Y775320D01*
X3285320D01*
X3470000Y960000D01*
X3690000D01*
G01X2980000Y1530000D02*
X2840000D01*
X2730000Y1640000D01*
Y2010000D01*
X2738590Y2018590D01*
Y2028590D01*
X2790000Y2080000D01*
G01X3010000Y1330000D02*
X3082700D01*
X3102700Y1350000D01*
X3160000D01*
X3190000Y1380000D01*
Y1430440D01*
X3193360Y1433800D01*
Y1530000D01*
G01X2990000Y2080000D02*
X2790000D01*
G01X2918280Y2650000D02*
X2996700D01*
X3030000Y2683300D01*
Y2700000D01*
X3100000Y2770000D01*
X3240000D01*
G01X3640000Y2500000D02*
X3697200Y2557200D01*
Y2770000D01*
G54D19*
G01X390000Y1856640D02*
X383360Y1850000D01*
X215000D01*
X170000Y1895000D01*
Y2230000D01*
X360000Y2420000D01*
Y2990000D01*
G01X1320000Y960000D02*
X870000D01*
G01D02*
X530000D01*
X346640Y1143360D01*
Y1310000D01*
G01X1320000D02*
X930000D01*
X870000Y1250000D01*
Y960000D01*
G01X390000Y1856640D02*
Y1610000D01*
X346640Y1566640D01*
Y1310000D01*
G01X360000Y3589440D02*
X610560D01*
X890000Y3310000D01*
X1231720D01*
G01X3200000Y966640D02*
X3101300D01*
X3094660Y960000D01*
X2970000D01*
X2920000Y910000D01*
Y825000D01*
X2875000Y780000D01*
X1365000D01*
X1320000Y825000D01*
Y960000D01*
G01X1231720Y3310000D02*
Y3681720D01*
X1293360Y3743360D01*
X1790000D01*
G01D02*
X2210000D01*
G01X2030000Y1206640D02*
Y910000D01*
G01D02*
X2360000D01*
X2490000Y1040000D01*
Y1210000D01*
G01X2210000Y3743360D02*
X2710000D01*
G01X3200000Y966640D02*
X3355000D01*
X3400000Y1011640D01*
Y1194610D01*
X3476250Y1270860D01*
X3510860D01*
X3620000Y1380000D01*
Y1560560D01*
G01Y2160000D02*
X3400000D01*
X3320000Y2080000D01*
X3198280D01*
G01D02*
Y1957400D01*
X3200000Y1955680D01*
Y1890000D01*
G01X2814140Y2855740D02*
Y3309140D01*
X3005000Y3500000D01*
G01X3468600Y3506600D02*
X3462000Y3500000D01*
X3005000D01*
G01D02*
X2960000Y3545000D01*
Y3660000D01*
X2876640Y3743360D01*
X2710000D01*
G01X3690000Y1173360D02*
X3516640D01*
M02*
